<svg xmlns="http://www.w3.org/2000/svg" xmlns:xlink="http://www.w3.org/1999/xlink" width="90" height="82.5" viewBox="0 0 90 82.5">
  <defs>
    <linearGradient id="linear-gradient" x1="0.5" x2="0.5" y2="1" gradientUnits="objectBoundingBox">
      <stop offset="0"/>
      <stop offset="1" stop-opacity="0.251"/>
    </linearGradient>
  </defs>
  <path id="aulasDash" d="M75,53.5a3.75,3.75,0,1,1-3.75-3.75A3.751,3.751,0,0,1,75,53.5m-11.25,0A3.75,3.75,0,1,1,60,49.75a3.751,3.751,0,0,1,3.75,3.75m-11.25,0a3.75,3.75,0,1,1-3.75-3.75A3.751,3.751,0,0,1,52.5,53.5M72.806,72.047a46.794,46.794,0,0,1-12.465,1.808c-12.994,0-26.591-7.744-26.591-20.336,0-11.73,11.775-21.27,26.25-21.27,14.415,0,26.25,9.532,26.25,21.27,0,5.966-2.423,9.476-5.554,13.226l3.146,10.073-11.036-4.77ZM22.658,59.391,6.2,66.5l4.71-15.045c-4.2-5.029-7.159-9.994-7.159-17.621C3.75,17.8,19.733,4.75,39.375,4.75c18.818,0,34.23,11.977,35.5,27.082A34.746,34.746,0,0,0,60,28.5c-15.746,0-30,10.489-30,25.02A20.318,20.318,0,0,0,31.541,61.2a66.875,66.875,0,0,1-8.884-1.811M90,53.519c0-8.145-4.5-15.056-11.257-19.537l.007-.146C78.75,14.762,60.045,1,39.375,1,18.577,1,0,14.867,0,33.835A28.914,28.914,0,0,0,6.716,52.292L.176,73.187l22.792-9.844a66.345,66.345,0,0,0,10.688,1.834C38.6,72.5,48.191,77.6,60.341,77.6A48.734,48.734,0,0,0,72.5,76l17.366,7.5-4.98-15.919A22.072,22.072,0,0,0,90,53.519" transform="translate(0 -1)" fill-rule="evenodd" opacity="0.5" fill="url(#linear-gradient)"/>
</svg>
