<svg xmlns="http://www.w3.org/2000/svg" width="24" height="22" viewBox="0 0 24 22">
  <path id="aulasHeader" d="M20,15a1,1,0,1,1-1-1,1,1,0,0,1,1,1m-3,0a1,1,0,1,1-1-1,1,1,0,0,1,1,1m-3,0a1,1,0,1,1-1-1,1,1,0,0,1,1,1m5.415,4.946a12.478,12.478,0,0,1-3.324.482C12.626,20.428,9,18.363,9,15c0-3.128,3.14-5.672,7-5.672,3.844,0,7,2.542,7,5.672a5.063,5.063,0,0,1-1.481,3.527l.839,2.686-2.943-1.272ZM6.042,16.571l-4.389,1.9,1.256-4.012A6.836,6.836,0,0,1,1,9.756C1,5.479,5.262,2,10.5,2c5.018,0,9.128,3.194,9.467,7.222A9.266,9.266,0,0,0,16,8.333c-4.2,0-8,2.8-8,6.672a5.418,5.418,0,0,0,.411,2.049,17.833,17.833,0,0,1-2.369-.483M24,15a6.263,6.263,0,0,0-3-5.21l0-.039C21,4.67,16.012,1,10.5,1,4.954,1,0,4.7,0,9.756a7.71,7.71,0,0,0,1.791,4.922L.047,20.25l6.078-2.625a17.692,17.692,0,0,0,2.85.489,8.384,8.384,0,0,0,7.116,3.314A13,13,0,0,0,19.333,21l4.631,2-1.328-4.245A5.886,5.886,0,0,0,24,15.005" transform="translate(0 -1)" fill="#f6f6f0" fill-rule="evenodd"/>
</svg>
