<svg xmlns="http://www.w3.org/2000/svg" width="24" height="24" viewBox="0 0 24 24">
  <path id="contaHeader" d="M12,0A12,12,0,1,1,0,12,12.006,12.006,0,0,1,12,0Zm8.127,19.41a2.529,2.529,0,0,0-1.624-.85c-3.848-.906-4.1-1.5-4.352-2.059a2.187,2.187,0,0,1,.205-1.977c1.726-3.257,2.09-6.024,1.027-7.79A3.752,3.752,0,0,0,12,5,3.769,3.769,0,0,0,8.591,6.763C7.525,8.552,7.9,11.307,9.64,14.52a2.175,2.175,0,0,1,.22,1.974c-.265.586-.611,1.19-4.365,2.066a2.532,2.532,0,0,0-1.623.848,10.993,10.993,0,0,0,16.255,0Zm.65-.782a11,11,0,1,0-17.555,0,3.806,3.806,0,0,1,2.049-1.041c2.025-.462,3.376-.836,3.678-1.5A1.247,1.247,0,0,0,8.761,15c-1.917-3.535-2.282-6.641-1.03-8.745A4.793,4.793,0,0,1,12,4a4.776,4.776,0,0,1,4.24,2.218c1.251,2.079.9,5.195-1,8.774a1.257,1.257,0,0,0-.179,1.094c.305.668,1.644,1.038,3.667,1.5a3.793,3.793,0,0,1,2.049,1.043Z" fill="#f6f6f0" fill-rule="evenodd"/>
</svg>
