<svg xmlns="http://www.w3.org/2000/svg" width="24" height="26.182" viewBox="0 0 24 26.182">
  <path id="deleteTable" d="M9.727,3.273h6.545V1.364A.272.272,0,0,0,16,1.091H10a.272.272,0,0,0-.273.273Zm12,1.091H4.273V24a1.091,1.091,0,0,0,1.091,1.091H20.636A1.091,1.091,0,0,0,21.727,24ZM10.818,8.182a.545.545,0,0,0-1.091,0V21.273a.545.545,0,0,0,1.091,0Zm5.455,0a.545.545,0,1,0-1.091,0V21.273a.545.545,0,1,0,1.091,0ZM25,3.273V4.364H22.818V24a2.181,2.181,0,0,1-2.182,2.182H5.364A2.181,2.181,0,0,1,3.182,24V4.364H1V3.273H8.636V1.091A1.091,1.091,0,0,1,9.727,0h6.545a1.091,1.091,0,0,1,1.091,1.091V3.273Z" transform="translate(-1)" fill="#0f0f0e" fill-rule="evenodd"/>
</svg>
