<svg xmlns="http://www.w3.org/2000/svg" width="16.282" height="16.278" viewBox="0 0 16.282 16.278">
  <path id="instagramIcon" d="M8.137,6.2a4.173,4.173,0,1,0,4.173,4.173A4.167,4.167,0,0,0,8.137,6.2Zm0,6.887a2.713,2.713,0,1,1,2.713-2.713A2.718,2.718,0,0,1,8.137,13.09Zm5.318-7.057a.973.973,0,1,1-.973-.973A.971.971,0,0,1,13.455,6.032Zm2.764.988A4.817,4.817,0,0,0,14.9,3.61a4.849,4.849,0,0,0-3.411-1.315c-1.344-.076-5.372-.076-6.716,0A4.842,4.842,0,0,0,1.367,3.606,4.833,4.833,0,0,0,.052,7.017c-.076,1.344-.076,5.372,0,6.716a4.817,4.817,0,0,0,1.315,3.411,4.855,4.855,0,0,0,3.411,1.315c1.344.076,5.372.076,6.716,0A4.817,4.817,0,0,0,14.9,17.144a4.849,4.849,0,0,0,1.315-3.411c.076-1.344.076-5.368,0-6.712Zm-1.736,8.154a2.747,2.747,0,0,1-1.547,1.547c-1.072.425-3.614.327-4.8.327s-3.73.094-4.8-.327a2.747,2.747,0,0,1-1.547-1.547c-.425-1.072-.327-3.614-.327-4.8s-.094-3.73.327-4.8A2.747,2.747,0,0,1,3.339,4.031c1.072-.425,3.614-.327,4.8-.327s3.73-.094,4.8.327a2.747,2.747,0,0,1,1.547,1.547c.425,1.072.327,3.614.327,4.8S14.908,14.107,14.483,15.175Z" transform="translate(0.005 -2.238)"/>
</svg>
