<svg xmlns="http://www.w3.org/2000/svg" width="24" height="22" viewBox="0 0 24 22">
  <path id="planosAulas" d="M2.978,8.358,0,5.74,8.707,1l3.341,2.345L15.258,1,24,5.639l-3.014,2.68L21,8.327l3,4.115-3,1.634V18.2L12,23,3,18.2V14.083l1,.544V17.6l7.5,4V13.711L9,17.345,0,12.452ZM12.5,13.724V21.6l7.5-4V14.621l-5,2.724-2.5-3.621ZM1.479,12.118l7.208,3.918,1.847-2.684L3.3,9.61,1.479,12.118Zm11.989,1.247,1.844,2.671,7.208-3.927L20.7,9.611l-7.23,3.754ZM3.991,8.84,12,4.41l8,4.437L12.029,13ZM1.735,5.934,3.841,7.785,11,3.832,8.64,2.175ZM13.008,3.882l7.076,3.9L22.26,5.848,15.342,2.177Z" transform="translate(0 -1)" fill="#f6f6f0" fill-rule="evenodd"/>
</svg>
