<svg xmlns="http://www.w3.org/2000/svg" xmlns:xlink="http://www.w3.org/1999/xlink" width="90" height="67" viewBox="0 0 90 67">
  <defs>
    <linearGradient id="linear-gradient" x1="0.5" x2="0.5" y2="1" gradientUnits="objectBoundingBox">
      <stop offset="0"/>
      <stop offset="1" stop-opacity="0.251"/>
    </linearGradient>
  </defs>
  <path id="planosDash" d="M82.5,3a7.531,7.531,0,0,1,5.3,2.181A7.419,7.419,0,0,1,90,10.444V62.556a7.419,7.419,0,0,1-2.2,5.263A7.531,7.531,0,0,1,82.5,70H7.5a7.531,7.531,0,0,1-5.3-2.181A7.419,7.419,0,0,1,0,62.556V10.444A7.419,7.419,0,0,1,2.2,5.181,7.531,7.531,0,0,1,7.5,3Zm3.75,29.778H3.75V62.556A3.738,3.738,0,0,0,7.5,66.278h75a3.738,3.738,0,0,0,3.75-3.722ZM30,51.389v3.722H11.25V51.389Zm48.75-7.444v3.722H67.5V43.944Zm-37.5,0v3.722h-30V43.944ZM3.75,21.611v7.444h82.5V21.611Zm82.5-3.722V10.444A3.738,3.738,0,0,0,82.5,6.722H7.5a3.738,3.738,0,0,0-3.75,3.722v7.444Z" transform="translate(0 -3)" fill-rule="evenodd" fill="url(#linear-gradient)"/>
</svg>
