<svg xmlns="http://www.w3.org/2000/svg" xmlns:xlink="http://www.w3.org/1999/xlink" width="90" height="120" viewBox="0 0 90 120">
  <defs>
    <linearGradient id="linear-gradient" x1="0.5" x2="0.5" y2="1" gradientUnits="objectBoundingBox">
      <stop offset="0"/>
      <stop offset="1" stop-opacity="0.251"/>
    </linearGradient>
  </defs>
  <path id="planosDash" d="M74.457,44.955l18.53,9.85L81.682,64.87l.055.03,11.25,15.45-11.25,6.14v15.48L47.987,120l-33.75-18.03V86.515L2.987,80.39l11.17-15.375-11.17-9.83L21.722,44.97A36.548,36.548,0,0,0,20.5,51.33l-8.845,4.82,5.905,5.2,3.12-1.725a21.483,21.483,0,0,0,1.4,4.92l-4.115,2.28L48.1,82.445,77.987,66.85,73.927,64.6a19.567,19.567,0,0,0,1.55-4.72l2.655,1.465,6.17-5.49-8.535-4.535a33.8,33.8,0,0,0-1.31-6.36ZM50.467,86.04V113L76.747,98.97V89.215l-17.51,9.55L50.467,86.04ZM19.232,89.235V98.97l26.245,14.02V86.05l-8.74,12.715-17.5-9.53ZM10.372,78.72l24.8,13.5,5.495-7.995L15.752,71.315l-5.38,7.4Zm44.945,5.55,5.48,7.95L85.6,78.69l-5.365-7.375Zm-6-8.455H46.2l.015-13.64h3.125Zm-5.795-7.12H40.4L40.447,60h3.125Zm11.79-.07h-3.13L52.142,60h3.125Zm-15.47-12.34-1.59-3.67c-3.66,1.345-10.775,11.42-10.775,11.42A23.438,23.438,0,0,1,33.7,35.74c-.415-3.5-3.22-20.84,14.085-35.565L47.987,0l.205.175C65.5,14.9,62.7,32.245,62.277,35.74a23.431,23.431,0,0,1,6.215,28.295S61.377,53.96,57.717,52.615l-1.585,3.67-8.145.025-8.14-.025ZM47.987,6.69c-5.465,4.615-12.16,16.965-9.27,31.115-3.63,3-7.9,7.27-8.56,15.445a18.431,18.431,0,0,1,10.455-6.78s2.12,3.91,2.535,4.865l4.84.015,4.845-.015c.415-.955,2.535-4.865,2.535-4.865a18.463,18.463,0,0,1,10.455,6.78c-.665-8.175-4.835-12.36-8.465-15.36,2.93-13.61-3.855-26.475-9.3-31.145l-.065-.055Zm-.22,28.465a2.578,2.578,0,1,1,2.57-2.58A2.582,2.582,0,0,1,47.767,35.155Zm0-9.22a5.155,5.155,0,1,1,5.145-5.155A5.157,5.157,0,0,1,47.767,25.935Zm0-7.17a1.945,1.945,0,1,1-1.945,1.945,1.943,1.943,0,0,1,1.945-1.945Z" transform="translate(-2.987)" fill-rule="evenodd" opacity="0.5" fill="url(#linear-gradient)"/>
</svg>
