<svg xmlns="http://www.w3.org/2000/svg" width="24" height="17.867" viewBox="0 0 24 17.867">
  <path id="planosHeader" d="M22,3a2.008,2.008,0,0,1,1.414.582A1.978,1.978,0,0,1,24,4.985v13.9a1.978,1.978,0,0,1-.586,1.4A2.008,2.008,0,0,1,22,20.867H2a2.008,2.008,0,0,1-1.414-.582A1.978,1.978,0,0,1,0,18.881V4.985a1.978,1.978,0,0,1,.586-1.4A2.008,2.008,0,0,1,2,3Zm1,7.941H1v7.941a1,1,0,0,0,1,.993H22a1,1,0,0,0,1-.993ZM8,15.9V16.9H3V15.9Zm13-1.985v.993H18v-.993Zm-10,0v.993H3v-.993ZM1,7.963V9.948H23V7.963ZM23,6.97V4.985a1,1,0,0,0-1-.993H2a1,1,0,0,0-1,.993V6.97Z" transform="translate(0 -3)" fill="#f6f6f0" fill-rule="evenodd"/>
</svg>
