<svg xmlns="http://www.w3.org/2000/svg" xmlns:xlink="http://www.w3.org/1999/xlink" width="90" height="89.552" viewBox="0 0 90 89.552">
  <defs>
    <linearGradient id="linear-gradient" x1="0.5" x2="0.5" y2="1" gradientUnits="objectBoundingBox">
      <stop offset="0"/>
      <stop offset="1" stop-opacity="0.251"/>
    </linearGradient>
  </defs>
  <path id="receitaDash" d="M18.313,72.414A39.178,39.178,0,1,1,71.447,17.138a39.178,39.178,0,1,1-53.1,55.328l-.037-.052ZM50.7,14.925A35.448,35.448,0,1,1,15.253,50.373,35.465,35.465,0,0,1,50.7,14.925ZM52.567,70.9h-3.81v-3.25c-8.743-1.127-9.7-8.131-9.7-10.239H43.13c.093,1.511.586,6.619,8.142,6.619a8.757,8.757,0,0,0,5.422-1.563,4.612,4.612,0,0,0,2-3.84c0-2.959-1.914-5.1-7.724-6.41-8.836-2-10.907-5.216-10.907-9.451,0-5.631,4.563-8.269,8.694-8.978V29.851h3.81v3.787c9.295.728,10.056,8.265,10.056,10.34h-4.1c0-4.332-3.425-6.59-7.448-6.59s-6.918,1.985-6.918,5.254c0,2.914,1.638,4.347,7.44,5.8,7.011,1.765,11.19,4.108,11.19,10,0,6.507-5.631,8.929-10.224,9.3V70.9ZM63.2,13.235a35.441,35.441,0,0,0-49.119,51.09l-.015-.037A39.2,39.2,0,0,1,63.2,13.235Z" transform="translate(0.12)" fill-rule="evenodd" opacity="0.5" fill="url(#linear-gradient)"/>
</svg>
