<svg id="sairHeader" xmlns="http://www.w3.org/2000/svg" width="24" height="18.229" viewBox="0 0 24 18.229">
  <g id="Grupo_85" data-name="Grupo 85">
    <path id="Caminho_6" data-name="Caminho 6" d="M0,61.99V74.139a3.049,3.049,0,0,0,3.046,3.04h9.841a3.049,3.049,0,0,0,3.046-3.04V72.171a.6.6,0,0,0-1.207,0v1.968a1.847,1.847,0,0,1-1.845,1.84H3.046A1.847,1.847,0,0,1,1.2,74.139V61.99a1.847,1.847,0,0,1,1.845-1.841h9.841a1.847,1.847,0,0,1,1.845,1.841v1.968a.6.6,0,0,0,1.207,0V61.99a3.049,3.049,0,0,0-3.046-3.04H3.046A3.046,3.046,0,0,0,0,61.99Z" transform="translate(0 -58.95)" fill="#f6f6f0"/>
    <path id="Caminho_7" data-name="Caminho 7" d="M215.086,158.168a.606.606,0,0,0,.854,0l4.116-4.1a.594.594,0,0,0,0-.845l-4.116-4.1a.6.6,0,0,0-.849,0,.594.594,0,0,0,0,.845l3.091,3.078H206.9a.6.6,0,1,0,0,1.2h11.273l-3.091,3.077A.588.588,0,0,0,215.086,158.168Z" transform="translate(-196.232 -144.535)" fill="#f6f6f0"/>
  </g>
</svg>
