<svg xmlns="http://www.w3.org/2000/svg" width="658.157" height="493.648" viewBox="0 0 658.157 493.648">
  <g id="createIllustration" transform="translate(0 -0.001)">
    <path id="Caminho_63" data-name="Caminho 63" d="M816.473,641.37H617.731v-1.624H816.768Z" transform="translate(-158.611 -164.263)" fill="#4e4e2e"/>
    <circle id="Elipse_6" data-name="Elipse 6" cx="5.728" cy="5.728" r="5.728" transform="translate(26.162 0.001)" fill="#e6e6e6"/>
    <circle id="Elipse_7" data-name="Elipse 7" cx="5.728" cy="5.728" r="5.728" transform="translate(55.159 0.001)" fill="#e6e6e6"/>
    <circle id="Elipse_8" data-name="Elipse 8" cx="5.728" cy="5.728" r="5.728" transform="translate(84.156 0.001)" fill="#e6e6e6"/>
    <circle id="Elipse_9" data-name="Elipse 9" cx="5.728" cy="5.728" r="5.728" transform="translate(113.154 0.001)" fill="#e6e6e6"/>
    <circle id="Elipse_10" data-name="Elipse 10" cx="5.728" cy="5.728" r="5.728" transform="translate(142.151 0.001)" fill="#e6e6e6"/>
    <circle id="Elipse_11" data-name="Elipse 11" cx="5.728" cy="5.728" r="5.728" transform="translate(171.148 0.001)" fill="#e6e6e6"/>
    <circle id="Elipse_12" data-name="Elipse 12" cx="5.728" cy="5.728" r="5.728" transform="translate(200.145 0.001)" fill="#e6e6e6"/>
    <circle id="Elipse_13" data-name="Elipse 13" cx="5.728" cy="5.728" r="5.728" transform="translate(229.142 0.001)" fill="#e6e6e6"/>
    <circle id="Elipse_14" data-name="Elipse 14" cx="5.728" cy="5.728" r="5.728" transform="translate(258.139 0.001)" fill="#e6e6e6"/>
    <circle id="Elipse_15" data-name="Elipse 15" cx="5.728" cy="5.728" r="5.728" transform="translate(287.137 0.001)" fill="#e6e6e6"/>
    <circle id="Elipse_16" data-name="Elipse 16" cx="5.728" cy="5.728" r="5.728" transform="translate(26.162 29.362)" fill="#e6e6e6"/>
    <circle id="Elipse_17" data-name="Elipse 17" cx="5.728" cy="5.728" r="5.728" transform="translate(55.159 29.362)" fill="#e6e6e6"/>
    <circle id="Elipse_18" data-name="Elipse 18" cx="5.728" cy="5.728" r="5.728" transform="translate(84.156 29.362)" fill="#e6e6e6"/>
    <circle id="Elipse_19" data-name="Elipse 19" cx="5.728" cy="5.728" r="5.728" transform="translate(113.154 29.362)" fill="#f3f00d"/>
    <circle id="Elipse_20" data-name="Elipse 20" cx="5.728" cy="5.728" r="5.728" transform="translate(142.151 29.362)" fill="#e6e6e6"/>
    <circle id="Elipse_21" data-name="Elipse 21" cx="5.728" cy="5.728" r="5.728" transform="translate(171.148 29.362)" fill="#e6e6e6"/>
    <circle id="Elipse_22" data-name="Elipse 22" cx="5.728" cy="5.728" r="5.728" transform="translate(200.145 29.362)" fill="#e6e6e6"/>
    <circle id="Elipse_23" data-name="Elipse 23" cx="5.728" cy="5.728" r="5.728" transform="translate(229.142 29.362)" fill="#e6e6e6"/>
    <circle id="Elipse_24" data-name="Elipse 24" cx="5.728" cy="5.728" r="5.728" transform="translate(258.139 29.362)" fill="#e6e6e6"/>
    <circle id="Elipse_25" data-name="Elipse 25" cx="5.728" cy="5.728" r="5.728" transform="translate(287.137 29.362)" fill="#e6e6e6"/>
    <circle id="Elipse_26" data-name="Elipse 26" cx="5.728" cy="5.728" r="5.728" transform="translate(26.162 58.723)" fill="#e6e6e6"/>
    <circle id="Elipse_27" data-name="Elipse 27" cx="5.728" cy="5.728" r="5.728" transform="translate(55.159 58.723)" fill="#e6e6e6"/>
    <circle id="Elipse_28" data-name="Elipse 28" cx="5.728" cy="5.728" r="5.728" transform="translate(84.156 58.723)" fill="#e6e6e6"/>
    <circle id="Elipse_29" data-name="Elipse 29" cx="5.728" cy="5.728" r="5.728" transform="translate(113.154 58.723)" fill="#e6e6e6"/>
    <circle id="Elipse_30" data-name="Elipse 30" cx="5.728" cy="5.728" r="5.728" transform="translate(142.151 58.723)" fill="#e6e6e6"/>
    <circle id="Elipse_31" data-name="Elipse 31" cx="5.728" cy="5.728" r="5.728" transform="translate(171.148 58.723)" fill="#e6e6e6"/>
    <circle id="Elipse_32" data-name="Elipse 32" cx="5.728" cy="5.728" r="5.728" transform="translate(200.145 58.723)" fill="#e6e6e6"/>
    <circle id="Elipse_33" data-name="Elipse 33" cx="5.728" cy="5.728" r="5.728" transform="translate(229.142 58.723)" fill="#e6e6e6"/>
    <circle id="Elipse_34" data-name="Elipse 34" cx="5.728" cy="5.728" r="5.728" transform="translate(258.139 58.723)" fill="#e6e6e6"/>
    <circle id="Elipse_35" data-name="Elipse 35" cx="5.728" cy="5.728" r="5.728" transform="translate(287.137 58.723)" fill="#e6e6e6"/>
    <circle id="Elipse_36" data-name="Elipse 36" cx="5.728" cy="5.728" r="5.728" transform="translate(26.162 88.084)" fill="#e6e6e6"/>
    <circle id="Elipse_37" data-name="Elipse 37" cx="5.728" cy="5.728" r="5.728" transform="translate(55.159 88.084)" fill="#e6e6e6"/>
    <circle id="Elipse_38" data-name="Elipse 38" cx="5.728" cy="5.728" r="5.728" transform="translate(84.156 88.084)" fill="#e6e6e6"/>
    <circle id="Elipse_39" data-name="Elipse 39" cx="5.728" cy="5.728" r="5.728" transform="translate(113.154 88.084)" fill="#e6e6e6"/>
    <circle id="Elipse_40" data-name="Elipse 40" cx="5.728" cy="5.728" r="5.728" transform="translate(142.151 88.084)" fill="#e6e6e6"/>
    <circle id="Elipse_41" data-name="Elipse 41" cx="5.728" cy="5.728" r="5.728" transform="translate(171.148 88.084)" fill="#e6e6e6"/>
    <circle id="Elipse_42" data-name="Elipse 42" cx="5.728" cy="5.728" r="5.728" transform="translate(200.145 88.084)" fill="#e6e6e6"/>
    <circle id="Elipse_43" data-name="Elipse 43" cx="5.728" cy="5.728" r="5.728" transform="translate(229.142 88.084)" fill="#e6e6e6"/>
    <circle id="Elipse_44" data-name="Elipse 44" cx="5.728" cy="5.728" r="5.728" transform="translate(258.139 88.084)" fill="#e6e6e6"/>
    <circle id="Elipse_45" data-name="Elipse 45" cx="5.728" cy="5.728" r="5.728" transform="translate(287.137 88.084)" fill="#e6e6e6"/>
    <circle id="Elipse_46" data-name="Elipse 46" cx="5.728" cy="5.728" r="5.728" transform="translate(26.162 117.445)" fill="#e6e6e6"/>
    <circle id="Elipse_47" data-name="Elipse 47" cx="5.728" cy="5.728" r="5.728" transform="translate(55.159 117.445)" fill="#f3f00d"/>
    <circle id="Elipse_48" data-name="Elipse 48" cx="5.728" cy="5.728" r="5.728" transform="translate(84.156 117.445)" fill="#e6e6e6"/>
    <circle id="Elipse_49" data-name="Elipse 49" cx="5.728" cy="5.728" r="5.728" transform="translate(113.154 117.445)" fill="#e6e6e6"/>
    <circle id="Elipse_50" data-name="Elipse 50" cx="5.728" cy="5.728" r="5.728" transform="translate(142.151 117.445)" fill="#e6e6e6"/>
    <circle id="Elipse_51" data-name="Elipse 51" cx="5.728" cy="5.728" r="5.728" transform="translate(171.148 117.445)" fill="#e6e6e6"/>
    <circle id="Elipse_52" data-name="Elipse 52" cx="5.728" cy="5.728" r="5.728" transform="translate(200.145 117.445)" fill="#e6e6e6"/>
    <circle id="Elipse_53" data-name="Elipse 53" cx="5.728" cy="5.728" r="5.728" transform="translate(229.142 117.445)" fill="#e6e6e6"/>
    <circle id="Elipse_54" data-name="Elipse 54" cx="5.728" cy="5.728" r="5.728" transform="translate(258.139 117.445)" fill="#e6e6e6"/>
    <circle id="Elipse_55" data-name="Elipse 55" cx="5.728" cy="5.728" r="5.728" transform="translate(287.137 117.445)" fill="#e6e6e6"/>
    <circle id="Elipse_56" data-name="Elipse 56" cx="5.728" cy="5.728" r="5.728" transform="translate(26.162 146.806)" fill="#e6e6e6"/>
    <circle id="Elipse_57" data-name="Elipse 57" cx="5.728" cy="5.728" r="5.728" transform="translate(55.159 146.806)" fill="#e6e6e6"/>
    <circle id="Elipse_58" data-name="Elipse 58" cx="5.728" cy="5.728" r="5.728" transform="translate(84.156 146.806)" fill="#e6e6e6"/>
    <circle id="Elipse_59" data-name="Elipse 59" cx="5.728" cy="5.728" r="5.728" transform="translate(113.154 146.806)" fill="#e6e6e6"/>
    <circle id="Elipse_60" data-name="Elipse 60" cx="5.728" cy="5.728" r="5.728" transform="translate(142.151 146.806)" fill="#e6e6e6"/>
    <circle id="Elipse_61" data-name="Elipse 61" cx="5.728" cy="5.728" r="5.728" transform="translate(171.148 146.806)" fill="#e6e6e6"/>
    <circle id="Elipse_62" data-name="Elipse 62" cx="5.728" cy="5.728" r="5.728" transform="translate(200.145 146.806)" fill="#e6e6e6"/>
    <circle id="Elipse_63" data-name="Elipse 63" cx="5.728" cy="5.728" r="5.728" transform="translate(229.142 146.806)" fill="#e6e6e6"/>
    <circle id="Elipse_64" data-name="Elipse 64" cx="5.728" cy="5.728" r="5.728" transform="translate(258.139 146.806)" fill="#e6e6e6"/>
    <circle id="Elipse_65" data-name="Elipse 65" cx="5.728" cy="5.728" r="5.728" transform="translate(287.137 146.806)" fill="#e6e6e6"/>
    <circle id="Elipse_66" data-name="Elipse 66" cx="5.728" cy="5.728" r="5.728" transform="translate(26.162 176.167)" fill="#e6e6e6"/>
    <circle id="Elipse_67" data-name="Elipse 67" cx="5.728" cy="5.728" r="5.728" transform="translate(55.159 176.167)" fill="#e6e6e6"/>
    <circle id="Elipse_68" data-name="Elipse 68" cx="5.728" cy="5.728" r="5.728" transform="translate(84.156 176.167)" fill="#f3f00d"/>
    <circle id="Elipse_69" data-name="Elipse 69" cx="5.728" cy="5.728" r="5.728" transform="translate(113.154 176.167)" fill="#e6e6e6"/>
    <circle id="Elipse_70" data-name="Elipse 70" cx="5.728" cy="5.728" r="5.728" transform="translate(142.151 176.167)" fill="#e6e6e6"/>
    <circle id="Elipse_71" data-name="Elipse 71" cx="5.728" cy="5.728" r="5.728" transform="translate(171.148 176.167)" fill="#e6e6e6"/>
    <circle id="Elipse_72" data-name="Elipse 72" cx="5.728" cy="5.728" r="5.728" transform="translate(200.145 176.167)" fill="#e6e6e6"/>
    <circle id="Elipse_73" data-name="Elipse 73" cx="5.728" cy="5.728" r="5.728" transform="translate(229.142 176.167)" fill="#e6e6e6"/>
    <circle id="Elipse_74" data-name="Elipse 74" cx="5.728" cy="5.728" r="5.728" transform="translate(258.139 176.167)" fill="#e6e6e6"/>
    <circle id="Elipse_75" data-name="Elipse 75" cx="5.728" cy="5.728" r="5.728" transform="translate(287.137 176.167)" fill="#e6e6e6"/>
    <circle id="Elipse_76" data-name="Elipse 76" cx="5.728" cy="5.728" r="5.728" transform="translate(26.162 205.529)" fill="#e6e6e6"/>
    <circle id="Elipse_77" data-name="Elipse 77" cx="5.728" cy="5.728" r="5.728" transform="translate(55.159 205.529)" fill="#e6e6e6"/>
    <circle id="Elipse_78" data-name="Elipse 78" cx="5.728" cy="5.728" r="5.728" transform="translate(84.156 205.529)" fill="#e6e6e6"/>
    <circle id="Elipse_79" data-name="Elipse 79" cx="5.728" cy="5.728" r="5.728" transform="translate(113.154 205.529)" fill="#e6e6e6"/>
    <circle id="Elipse_80" data-name="Elipse 80" cx="5.728" cy="5.728" r="5.728" transform="translate(142.151 205.529)" fill="#e6e6e6"/>
    <circle id="Elipse_81" data-name="Elipse 81" cx="5.728" cy="5.728" r="5.728" transform="translate(171.148 205.529)" fill="#e6e6e6"/>
    <circle id="Elipse_82" data-name="Elipse 82" cx="5.728" cy="5.728" r="5.728" transform="translate(200.145 205.529)" fill="#e6e6e6"/>
    <circle id="Elipse_83" data-name="Elipse 83" cx="5.728" cy="5.728" r="5.728" transform="translate(229.142 205.529)" fill="#e6e6e6"/>
    <circle id="Elipse_84" data-name="Elipse 84" cx="5.728" cy="5.728" r="5.728" transform="translate(258.139 205.529)" fill="#e6e6e6"/>
    <circle id="Elipse_85" data-name="Elipse 85" cx="5.728" cy="5.728" r="5.728" transform="translate(287.137 205.529)" fill="#e6e6e6"/>
    <circle id="Elipse_86" data-name="Elipse 86" cx="5.728" cy="5.728" r="5.728" transform="translate(26.162 234.889)" fill="#e6e6e6"/>
    <circle id="Elipse_87" data-name="Elipse 87" cx="5.728" cy="5.728" r="5.728" transform="translate(55.159 234.889)" fill="#e6e6e6"/>
    <circle id="Elipse_88" data-name="Elipse 88" cx="5.728" cy="5.728" r="5.728" transform="translate(84.156 234.889)" fill="#e6e6e6"/>
    <circle id="Elipse_89" data-name="Elipse 89" cx="5.728" cy="5.728" r="5.728" transform="translate(113.154 234.889)" fill="#e6e6e6"/>
    <circle id="Elipse_90" data-name="Elipse 90" cx="5.728" cy="5.728" r="5.728" transform="translate(142.151 234.889)" fill="#e6e6e6"/>
    <circle id="Elipse_91" data-name="Elipse 91" cx="5.728" cy="5.728" r="5.728" transform="translate(171.148 234.889)" fill="#e6e6e6"/>
    <circle id="Elipse_92" data-name="Elipse 92" cx="5.728" cy="5.728" r="5.728" transform="translate(200.145 234.889)" fill="#e6e6e6"/>
    <circle id="Elipse_93" data-name="Elipse 93" cx="5.728" cy="5.728" r="5.728" transform="translate(229.142 234.889)" fill="#e6e6e6"/>
    <circle id="Elipse_94" data-name="Elipse 94" cx="5.728" cy="5.728" r="5.728" transform="translate(258.139 234.889)" fill="#e6e6e6"/>
    <circle id="Elipse_95" data-name="Elipse 95" cx="5.728" cy="5.728" r="5.728" transform="translate(287.137 234.889)" fill="#e6e6e6"/>
    <circle id="Elipse_96" data-name="Elipse 96" cx="5.728" cy="5.728" r="5.728" transform="translate(26.162 264.25)" fill="#e6e6e6"/>
    <circle id="Elipse_97" data-name="Elipse 97" cx="5.728" cy="5.728" r="5.728" transform="translate(55.159 264.25)" fill="#e6e6e6"/>
    <circle id="Elipse_98" data-name="Elipse 98" cx="5.728" cy="5.728" r="5.728" transform="translate(84.156 264.25)" fill="#e6e6e6"/>
    <circle id="Elipse_99" data-name="Elipse 99" cx="5.728" cy="5.728" r="5.728" transform="translate(113.154 264.25)" fill="#e6e6e6"/>
    <circle id="Elipse_100" data-name="Elipse 100" cx="5.728" cy="5.728" r="5.728" transform="translate(142.151 264.25)" fill="#e6e6e6"/>
    <circle id="Elipse_101" data-name="Elipse 101" cx="5.728" cy="5.728" r="5.728" transform="translate(171.148 264.25)" fill="#e6e6e6"/>
    <circle id="Elipse_102" data-name="Elipse 102" cx="5.728" cy="5.728" r="5.728" transform="translate(200.145 264.25)" fill="#e6e6e6"/>
    <circle id="Elipse_103" data-name="Elipse 103" cx="5.728" cy="5.728" r="5.728" transform="translate(229.142 264.25)" fill="#e6e6e6"/>
    <circle id="Elipse_104" data-name="Elipse 104" cx="5.728" cy="5.728" r="5.728" transform="translate(258.139 264.25)" fill="#e6e6e6"/>
    <circle id="Elipse_105" data-name="Elipse 105" cx="5.728" cy="5.728" r="5.728" transform="translate(287.137 264.25)" fill="#e6e6e6"/>
    <path id="Caminho_64" data-name="Caminho 64" d="M273.351,264.7l67.987-119.133H205.291L137.232,263.447l68.059,117.883H341.41l67.933-117.662Z" transform="translate(-35.236 -37.376)" fill="#191913"/>
    <path id="Caminho_65" data-name="Caminho 65" d="M479.084,250.2l.127-.221L411.153,132.1h-.073L343.093,251.235Z" transform="translate(-88.094 -33.919)" fill="#f3f00d"/>
    <path id="Caminho_66" data-name="Caminho 66" d="M815.2,251.923a10.505,10.505,0,0,1,0-11.347,5.739,5.739,0,0,1,4.6-1.944,5.834,5.834,0,0,1,4.659,1.944,10.416,10.416,0,0,1,0,11.347,5.833,5.833,0,0,1-4.659,1.944,5.738,5.738,0,0,1-4.6-1.944Zm6.6-2.013a7.922,7.922,0,0,0,.63-3.677,7.647,7.647,0,0,0-.649-3.625,2.13,2.13,0,0,0-1.979-1.138,2.063,2.063,0,0,0-1.926,1.138,7.831,7.831,0,0,0-.631,3.625,7.928,7.928,0,0,0,.631,3.659,2.062,2.062,0,0,0,1.926,1.138,2.126,2.126,0,0,0,2-1.121Zm-2.241,14.009,14.428-24.935h3.887l-14.464,24.935Zm13.4-1.7a8.586,8.586,0,0,1-1.664-5.726,8.4,8.4,0,0,1,1.664-5.638,6.553,6.553,0,0,1,9.28,0,10.536,10.536,0,0,1,0,11.364,6.511,6.511,0,0,1-9.28,0Zm6.6-2.031a7.931,7.931,0,0,0,.631-3.66,7.655,7.655,0,0,0-.648-3.625,2.244,2.244,0,0,0-3.9,0,7.839,7.839,0,0,0-.63,3.625,7.939,7.939,0,0,0,.63,3.66,2.259,2.259,0,0,0,3.922,0Z" transform="translate(-325.75 -148.902)" fill="#191913"/>
    <path id="Caminho_67" data-name="Caminho 67" d="M158.9,541.321a10.506,10.506,0,0,1,0-11.347,5.739,5.739,0,0,1,4.6-1.944,5.834,5.834,0,0,1,4.659,1.944,10.416,10.416,0,0,1,0,11.347,5.833,5.833,0,0,1-4.659,1.944A5.738,5.738,0,0,1,158.9,541.321Zm6.6-2.013a7.923,7.923,0,0,0,.63-3.677,7.648,7.648,0,0,0-.649-3.625,2.13,2.13,0,0,0-1.979-1.138,2.063,2.063,0,0,0-1.926,1.138,7.831,7.831,0,0,0-.631,3.625,7.927,7.927,0,0,0,.631,3.659,2.062,2.062,0,0,0,1.926,1.138,2.127,2.127,0,0,0,2-1.121Zm-2.241,14.008,14.428-24.935h3.887l-14.464,24.935Zm13.4-1.7a8.586,8.586,0,0,1-1.664-5.726,8.4,8.4,0,0,1,1.664-5.638,6.553,6.553,0,0,1,9.28,0,10.536,10.536,0,0,1,0,11.364,6.511,6.511,0,0,1-9.28,0Zm6.6-2.031a7.929,7.929,0,0,0,.631-3.66,7.654,7.654,0,0,0-.648-3.625,2.243,2.243,0,0,0-3.9,0,7.837,7.837,0,0,0-.63,3.625,7.939,7.939,0,0,0,.63,3.66,2.259,2.259,0,0,0,3.922,0Z" transform="translate(-157.236 -223.209)" fill="#191913"/>
    <path id="Caminho_68" data-name="Caminho 68" d="M438.979,209.81l-.881-.234,19.216-72.285H568.77v.911H458.014Z" transform="translate(-112.488 -35.251)" fill="#2f2e41"/>
    <path id="Caminho_69" data-name="Caminho 69" d="M780.1,262.07a9.562,9.562,0,1,1,9.563-9.562,9.563,9.563,0,0,1-9.562,9.562Zm0-18.214a8.652,8.652,0,1,0,8.652,8.652,8.652,8.652,0,0,0-8.652-8.652Z" transform="translate(-314.709 -150.012)" fill="#2f2e41"/>
    <circle id="Elipse_106" data-name="Elipse 106" cx="3.643" cy="3.643" r="3.643" transform="translate(461.747 98.853)" fill="#f3f00d"/>
    <path id="Caminho_70" data-name="Caminho 70" d="M205.117,330.343l.881.234-19.216,72.284H75.326v-.91H186.082Z" transform="translate(-19.341 -84.82)" fill="#2f2e41"/>
    <path id="Caminho_71" data-name="Caminho 71" d="M217.005,532.342a9.563,9.563,0,1,1-9.562,9.563,9.563,9.563,0,0,1,9.562-9.563Zm0,18.214a8.652,8.652,0,1,0-8.652-8.652,8.652,8.652,0,0,0,8.652,8.652Z" transform="translate(-170.127 -224.318)" fill="#2f2e41"/>
    <circle id="Elipse_107" data-name="Elipse 107" cx="3.643" cy="3.643" r="3.643" transform="translate(43.235 313.944)" fill="#f3f00d"/>
    <rect id="Ret창ngulo_194" data-name="Ret창ngulo 194" width="13.827" height="18.805" transform="translate(534.5 461.758)" fill="#a0616a"/>
    <rect id="Ret창ngulo_195" data-name="Ret창ngulo 195" width="13.827" height="18.805" transform="translate(604.742 461.758)" fill="#a0616a"/>
    <path id="Caminho_72" data-name="Caminho 72" d="M999.575,519.589h0a8.2,8.2,0,0,1-8.106-9.477l2.265-14.437.673-4.294h10.509l.553,6.084,2.188,12.5a8.2,8.2,0,0,1-8.082,9.619Z" transform="translate(-371.411 -213.801)" fill="#a0616a"/>
    <path id="Caminho_73" data-name="Caminho 73" d="M861.158,517.357h0a8.2,8.2,0,0,1-8.106-9.476l2.265-14.437.674-4.294H866.5l.553,6.084,2.188,12.5a8.205,8.205,0,0,1-8.082,9.619Z" transform="translate(-335.871 -213.228)" fill="#a0616a"/>
    <path id="Caminho_74" data-name="Caminho 74" d="M802.969,560.951l-16.592-.553-27.1-163.713-27.1,164.266-16.039-.553-4.424-189.155h92.918Z" transform="translate(-182.741 -95.321)" fill="#191913"/>
    <path id="Caminho_75" data-name="Caminho 75" d="M882.909,772.965c-14.078.407-25.1-3.4-32.323-12.433a5.968,5.968,0,0,1-.452-6.8h0a5.967,5.967,0,0,1,5.809-2.856l4.575.535,9.526-4.76C868.1,757.987,873.4,758.2,886.075,754.4l2.284,11.707a5.749,5.749,0,0,1-5.45,6.856Z" transform="translate(-334.928 -279.346)" fill="#191913"/>
    <path id="Caminho_76" data-name="Caminho 76" d="M977.417,773.231c-14.078.407-25.1-3.4-32.323-12.433a5.968,5.968,0,0,1-.452-6.8h0a5.967,5.967,0,0,1,5.809-2.857l4.575.535,9.454-3.989c-1.949,11.332,3.423,10.774,16.1,6.976l2.284,11.707a5.749,5.749,0,0,1-5.45,6.856Z" transform="translate(-359.194 -279.612)" fill="#191913"/>
    <circle id="Elipse_108" data-name="Elipse 108" cx="22.123" cy="22.123" r="22.123" transform="translate(548.881 58.56)" fill="#a0616a"/>
    <path id="Caminho_77" data-name="Caminho 77" d="M789.435,151.989l-23.783,1.106-1.106-24.889,20.464-7.743Z" transform="translate(-196.307 -30.93)" fill="#a0616a"/>
    <path id="Caminho_78" data-name="Caminho 78" d="M968.928,438.425c-32.432-6.137-69.381-8.335-94.025,0l7.743-162.607,25.995-7.743,1.936-3.042,21.847-3.6,10.509,3.319,6.637,9.956,28.76,16.039C964.17,345.516,959.977,395.273,968.928,438.425Z" transform="translate(-341.507 -154.76)" fill="#191913"/>
    <path id="Caminho_79" data-name="Caminho 79" d="M1014.024,446.108l-23.783-2.765c4.957-24.153,2.93-55.569,4.148-87.111.773-20,4.922-38.21,6.36-60.563h0c9.02,2.352,13.689,10.727,13.743,20.6C1014.752,363.081,1019.174,406.945,1014.024,446.108Z" transform="translate(-371.121 -163.549)" fill="#191913"/>
    <path id="Caminho_80" data-name="Caminho 80" d="M875.061,439.5l-23.23-1.659L865.658,359.3l4.681-65.356c-.728-9.531,4.366-15.069,11.911-15.394h0c16.483,19.519,18.394,46.418,13.274,76.879Z" transform="translate(-335.583 -159.155)" fill="#191913"/>
    <path id="Caminho_81" data-name="Caminho 81" d="M920.7,232.644l-2.853-8.122a26.639,26.639,0,0,0-21.107-17.5h0l-17.88-.41,4.964-7.978a24.259,24.259,0,0,1,23-11.323l17.87,1.781a16.187,16.187,0,0,1,14.512,17.61l-1.639,17.574a11.069,11.069,0,0,1-16.87,8.371Z" transform="translate(-342.523 -135.695)" fill="#191913"/>
  </g>
</svg>
