<svg xmlns="http://www.w3.org/2000/svg" width="788" height="638.767" viewBox="0 0 788 638.767">
  <g id="illustrationHero" transform="translate(1734.644 7145.652)">
    <g id="Grupo_2" data-name="Grupo 2" transform="translate(-1734.645 -7145.652)">
      <g id="Scene_Home" data-name="Scene/Home" transform="translate(0 0)">
        <path id="Twisted_Leaf" data-name="Twisted Leaf" d="M90.988,1.187A6.6,6.6,0,0,0,88.864.616,34.463,34.463,0,0,0,82.22,0,122.574,122.574,0,0,0,61.682,1.846c-4.272.739-9.444,3.224-13.7,1.875-7.409-2.352-14.9-2.236-21.927,1.121-6.427,3.07-11.3,8.9-14.152,15.2a38.636,38.636,0,0,0-2.666,6.811c-.211.482-.414.968-.6,1.462-.518,1.4-.979,2.824-1.415,4.252-.184.609-.649,1.953-.1,2.213A40.463,40.463,0,0,0,4.817,39.81C2.925,44.84.856,50.359.191,55.69a24.844,24.844,0,0,0-.027,5.938c.113.979.066,2.943.729,3.687,1.406,1.577,2.129-.631,1.971-1.682-1.211-8.016,1.128-15.544,3.9-23.08A47.42,47.42,0,0,1,14.8,27.185a33.739,33.739,0,0,1,9.193-8.011,143.722,143.722,0,0,1,14-6.943c3.115-1.413,6.239-2.789,9.444-4.005a9.413,9.413,0,0,1,2.624-.968c1.671-.006,4.038,1.227,5.653,1.686,5.308,1.513,10.681,3.442,16.171,4.213a20.855,20.855,0,0,0,10.105-1.229,9.46,9.46,0,0,0,1.591-.867,23.085,23.085,0,0,0,6.765-3.827,26.991,26.991,0,0,0,3.171-3.417,1.79,1.79,0,0,0,.418-1.125.678.678,0,0,0,.394-.4c.239-1.145-1.944-1.166-3.341-1.1" transform="translate(683.958 149.985)" fill="#cacc89"/>
        <path id="Fill_16" data-name="Fill 16" d="M10.621,0C8.891,0,7.168.035,5.442.124,4.126.192,2.115-.079,1,.737c-1.157.848-1.077,2.581-.9,3.81.955,6.482,3.287,12.229,8.166,16.822,7.511,7.071,16.122,10.664,26.312,12.264,7.158,1.124,13.765-.437,19.034-5.5a78.788,78.788,0,0,1,8.236,22.921,54.655,54.655,0,0,1,.816,11.781c-.082,2.556-.223,5.105-.5,7.649-.119,1.105-.685,2.779-.251,3.827a1.757,1.757,0,0,0,3,.3c.643-.87.525-2.581.657-3.61.219-1.712.422-3.424.567-5.143.236-2.782.409-5.574.4-8.367a62.1,62.1,0,0,0-3.349-18.541c-3.68-11.43-9.65-21.592-18.936-29.558C38.55,4.489,32.016,2.5,24.6,1.439A99.015,99.015,0,0,0,10.621,0" transform="translate(64.179 267.588) rotate(-39)" fill="#e9e9dd"/>
        <path id="Leaf" d="M72.509,160.94c-1.4-11.163-2.886-22.263-5.6-33.209-1.6-6.45-3.649-12.766-5.518-19.142q.251,1.2.445,2.412c-.649-1.9-2-3.721-2.782-5.616-.869-2.114-1.567-4.31-2.231-6.492-1.3-4.26-2.519-8.527-3.977-12.738-1.625-4.692-3.5-9.3-5.24-13.956A113.258,113.258,0,0,0,42.81,60.347c-1.05-2.053-1.991-4.258-3.026-6.351-.345-.7-3.306-8.523-3.284-8.523.49,0,2.326,3.478,2.629,3.988.89,1.492,1.644,3.045,2.4,4.6a20.484,20.484,0,0,1,1.673-5.354c.254-.524,2.034-4.39,2.613-4.39.289,0-2.386,7.3-2.725,7.941a13.223,13.223,0,0,0-.968,1.735c-.289.89-.141.671.1,1.478a42.382,42.382,0,0,0,2.026,4.342,30.91,30.91,0,0,0,1.963,4.563c2.068,4.043,3.535,8.967,5.111,13.328a28.531,28.531,0,0,1,1.735-6.22c.192-.479,1.721-4.918,2.162-4.918.5,0-1.4,7.11-1.66,7.724-.479,1.141-1.232,2.245-1.631,3.406-.437,1.275.331,2.422.82,3.725,1.8,4.8,3.377,9.64,4.819,14.548C65.941,92.3,67.606,81.512,68.152,73.553a55.6,55.6,0,0,0-1.886-17.14,114.546,114.546,0,0,0-8.3-21.5A76.9,76.9,0,0,0,42.384,13.4,82.233,82.233,0,0,0,31.341,4.574a23.5,23.5,0,0,0-6.053-3.115A21.906,21.906,0,0,0,22.24.712C21.454.573,19.851-.156,19.2.03,13.878,1.5,9.883,3.949,6.784,8.5A39.806,39.806,0,0,0,1.016,23.007,46.166,46.166,0,0,0,.585,39.964,104.813,104.813,0,0,0,3.871,52.706C8.406,67.617,16.354,83.6,30.618,91.78a43.41,43.41,0,0,0,15,5.016,37.256,37.256,0,0,0,3.731.445c.846.048,3.624-.514,4.237-.149.838.5,1.32,3.334,1.686,4.361,2.777,7.812,5.26,15.713,7.514,23.683,2.4,8.481,4.3,17.043,5.888,25.7.675,3.683,1.335,7.359,1.891,11.062.131.862,0,3.571.837,4.332a1.014,1.014,0,0,0,1.6-.305c.55-1.024-.346-3.852-.49-5" transform="matrix(0.799, -0.602, 0.602, 0.799, 0, 123.302)" fill="#e1e2c1"/>
        <path id="Fill_10" data-name="Fill 10" d="M76.529.583a41.89,41.89,0,0,0-9.48-.558,58.907,58.907,0,0,0-43.471,20.62C14.554,31.327,12.072,44.607,10.29,58.029c-.178,1.335-.253,2.657-.356,3.993-.021.287-.053.542-.089.783A1.724,1.724,0,0,0,9.2,64.972,89.241,89.241,0,0,0,5.224,75.391C1.924,85.912-1.431,96.633.636,107.7a154.569,154.569,0,0,1,2.714-18.3q.105-.515.224-1.024c.008-.036.015-.072.024-.108A40.022,40.022,0,0,1,5.267,82.9l.021-.057c.089-.231.185-.459.279-.689.195-.474.4-.948.607-1.419q.108-.24.206-.486c.99-2.426,1.408-5.162,2.295-7.671q.319-.856.667-1.705l.042-.1c.628-1.522,1.322-3.026,2.056-4.514a5.558,5.558,0,0,0,.956-1.719,10.746,10.746,0,0,0,.793-1.533q.648-1.254,1.3-2.506l-.039.014q.653-1.2,1.306-2.393l.287-.524.466-.835c1.453-2.6,2.993-5.147,4.593-7.664.571-.9,1.935-2.185,2.2-3.194.01-.037.012-.072.018-.109A57.223,57.223,0,0,1,35.574,32.861c-.579.623-1.81,2.751-2.136,3.172-1,1.288-2.077,2.488-3.163,3.7a78.787,78.787,0,0,0-5.53,6.79,129.025,129.025,0,0,0-8.261,13.561c-.024.028-.05.053-.073.081-1.264,1.559-2.06,3.915-2.97,5.7,3.6-1.668,7.584-2.759,11.281-4.236a92.689,92.689,0,0,0,10.733-5.052,119.78,119.78,0,0,0,13.722-8.742A54.364,54.364,0,0,0,62.038,36.024C66.411,30.742,70.418,25.415,72.9,19A51.114,51.114,0,0,0,75.641,9.24c.025-.145.057-.3.089-.466a31.978,31.978,0,0,0,1.536-3.523c.692-1.9,2.327-4-.739-4.669" transform="translate(687.594 192.203)" fill="#aca369"/>
        <path id="Leave_the_Leaf_" data-name="Leave the Leaf!" d="M47.739,72.986c.2,0,.412-.151.641-.445.528-.687.105-2.92-.123-4.12-.041-.214-.076-.4-.1-.522a25.811,25.811,0,0,0-.683-3.122,90.063,90.063,0,0,0-3.324-9.168c-.455-1.117-.931-2.274-1.415-3.441-.089-.217-.167-.377-.23-.506-.223-.462-.223-.462.23-.955l.08-.089a6.263,6.263,0,0,1,.823-.712,7.67,7.67,0,0,0,.692-.576,15.515,15.515,0,0,0,3.786-6.271,15.74,15.74,0,0,0,.685-6.86,26.969,26.969,0,0,0-1.76-6.726,53.979,53.979,0,0,0-5.476-10.581A48.788,48.788,0,0,0,33.8,9.756,42.23,42.23,0,0,0,20.894,2.209,27.333,27.333,0,0,0,12.645.279c-.4-.028-.807-.042-1.22-.042a22.391,22.391,0,0,0-2.74.18C8.427.445,8.158.5,7.9.552A8.079,8.079,0,0,1,6.785.717l-.178.01c-.122.007-.218.012-.3.012-.341,0-.476-.1-.906-.522A.623.623,0,0,0,4.987,0a.37.37,0,0,0-.333.284,1.018,1.018,0,0,0,.279,1.068,7.614,7.614,0,0,0-3.487,3.08A10.978,10.978,0,0,0,.078,8.821a31.687,31.687,0,0,0,.751,9.426,43.193,43.193,0,0,0,3.049,9.4A49.469,49.469,0,0,0,8.8,36.062,71.123,71.123,0,0,0,22.724,50.17a20.336,20.336,0,0,0,9.351,4.272,10.9,10.9,0,0,0,1.78.148,11.944,11.944,0,0,0,3.738-.623c.093-.031.214-.066.356-.106.57-.165,1.43-.413,1.643-.768.19-.32.014-.6-.209-.945-.066-.1-.134-.209-.2-.326q-.369-.67-.737-1.34c-.647-1.178-1.316-2.4-1.987-3.589-.106-.189-.218-.436-.336-.7A4.57,4.57,0,0,0,35.1,44.535a.629.629,0,0,0-.169-.016,1.32,1.32,0,0,1-.534-.089c-.113-.072-.131-.277-.143-.412-.006-.069-.011-.122-.026-.131a5.805,5.805,0,0,0-2.024-.465c-.341-.04-.663-.077-.918-.132-.7-.15-1.53-.338-2.348-.594a26.047,26.047,0,0,1-2.465-.917,7.632,7.632,0,0,1-.678-.365,4.667,4.667,0,0,0-1.381-.634,22.563,22.563,0,0,1,5.273.944,20.555,20.555,0,0,1,2.751.958c.108.046.287.145.493.26a4.574,4.574,0,0,0,1.442.623.235.235,0,0,0,.12-.027,53.639,53.639,0,0,0-3.669-5.224c-.684-.864-1.407-1.8-2.06-2.759-.042-.062-.146-.249-.277-.485a7.241,7.241,0,0,0-1.148-1.764c.417,0,1.321.979,1.862,1.558.157.169.292.314.377.4a25.167,25.167,0,0,1,1.988,2.122,48.153,48.153,0,0,1,2.949,4c1.307,1.952,2.454,3.987,3.518,5.9.245.445.509.89.765,1.335a26.409,26.409,0,0,1,1.906,3.7.224.224,0,0,1,.133-.056c.142,0,.21.23.276.451a2.373,2.373,0,0,0,.075.226c.345.829.683,1.64,1.015,2.447.7,1.7,1.26,3.115,1.763,4.43l.027.07c.589,1.545,1.2,3.143,1.691,4.746a27.154,27.154,0,0,1,1.013,4.6c.078.623.133,1.251.162,1.869C46.884,71.6,47.137,72.986,47.739,72.986ZM44.876,43.924a16.851,16.851,0,0,1-2.67,4.45c.623-.922,1.157-1.769,1.64-2.587.109-.185.317-.572.519-.947C44.616,44.373,44.853,43.933,44.876,43.924ZM32.98,30.952c.283,0,.586,2.534.617,2.955a12.348,12.348,0,0,1-.487,4.159v0a15.932,15.932,0,0,0-.126-2c-.178-1.988-.42-4.712-.089-5.073a.111.111,0,0,1,.085-.045Z" transform="matrix(0.53, -0.848, 0.848, 0.53, 53.433, 218.815)" fill="#cacc89"/>
        <g id="Background_Shape_2" data-name="Background Shape 2" transform="translate(42.701 316.527)" opacity="0.6">
          <path id="Background_Shape" data-name="Background Shape" d="M744.974,151.514c10.864,67.72-252.6,111.892-479.382,81.065S-65.217,81.373,43,17.229,734.11,83.793,744.974,151.514Z" transform="translate(0 0.001)" fill="#e9e9dd"/>
        </g>
        <g id="Mobile3" transform="translate(163.061 33.085)">
          <rect id="Container" width="141.523" height="268.804" rx="8" fill="#f2f2f2"/>
          <circle id="Touch" cx="13.351" cy="13.351" r="13.351" transform="translate(56.965 225.19)" fill="#fff"/>
          <g id="Camera" transform="translate(56.965 14.241)">
            <circle id="Lens" cx="1.78" cy="1.78" r="1.78" fill="#fff"/>
            <rect id="Sensor" width="18.692" height="3.56" rx="1.78" transform="translate(8.011)" fill="#fff"/>
          </g>
          <g id="Rows" transform="translate(12.461 24.922)">
            <g id="Row">
              <rect id="Background" width="116.6" height="48.064" rx="4" fill="#fff"/>
              <g id="Text" transform="translate(34.713 14.419)">
                <rect id="Name" width="64.976" height="7.21" rx="3" fill="#e9e9dd"/>
                <rect id="Name-2" data-name="Name" width="43.614" height="7.21" rx="3" transform="translate(0 12.016)" fill="#e9e9dd"/>
              </g>
              <circle id="Avatar" cx="10.681" cy="10.681" r="10.681" transform="translate(8.011 13.351)" fill="#d6d4c5"/>
            </g>
            <g id="Row-2" data-name="Row" transform="translate(0 55.185)">
              <rect id="Background-2" data-name="Background" width="116.6" height="37.383" rx="4" fill="#fff"/>
              <g id="Text-2" data-name="Text" transform="translate(34.713 11.215)">
                <rect id="Name-3" data-name="Name" width="64.976" height="5.607" rx="2.804" fill="#e9e9dd"/>
                <rect id="Name-4" data-name="Name" width="43.614" height="5.607" rx="2.804" transform="translate(0 9.346)" fill="#e9e9dd"/>
              </g>
              <circle id="Avatar-2" data-name="Avatar" cx="10.681" cy="10.681" r="10.681" transform="translate(8.011 8.011)" fill="#d6d4c5"/>
            </g>
            <g id="Row-3" data-name="Row" transform="translate(0 99.689)">
              <rect id="Background-3" data-name="Background" width="116.6" height="37.383" rx="4" fill="#fff"/>
              <g id="Text-3" data-name="Text" transform="translate(34.713 11.215)">
                <rect id="Name-5" data-name="Name" width="64.976" height="5.607" rx="2.804" fill="#e9e9dd"/>
                <rect id="Name-6" data-name="Name" width="43.614" height="5.607" rx="2.804" transform="translate(0 9.346)" fill="#e9e9dd"/>
              </g>
              <circle id="Avatar-3" data-name="Avatar" cx="10.681" cy="10.681" r="10.681" transform="translate(8.011 8.011)" fill="#c5c3af"/>
            </g>
            <g id="Row-4" data-name="Row" transform="translate(0 144.193)">
              <rect id="Background-4" data-name="Background" width="116.6" height="37.383" rx="4" fill="#fff"/>
              <g id="Text-4" data-name="Text" transform="translate(34.713 11.215)">
                <rect id="Name-7" data-name="Name" width="64.976" height="5.607" rx="2.804" fill="#e9e9dd"/>
                <rect id="Name-8" data-name="Name" width="43.614" height="5.607" rx="2.804" transform="translate(0 9.346)" fill="#e9e9dd"/>
              </g>
              <circle id="Avatar-4" data-name="Avatar" cx="10.681" cy="10.681" r="10.681" transform="translate(8.011 8.011)" fill="#d6d4c5"/>
            </g>
          </g>
        </g>
        <g id="Mobile3-2" data-name="Mobile3" transform="translate(188.707 63.083)">
          <g id="Group" transform="translate(0 194.037)">
            <path id="Fill_16-2" data-name="Fill 16" d="M7.245,0C6.066,0,4.89.024,3.713.089c-.9.043-2.27-.143-3.029.417-.789.581-.735,1.77-.611,2.61a18.942,18.942,0,0,0,5.57,11.532c5.128,4.846,11,7.309,17.945,8.406,4.883.771,9.39-.3,12.984-3.771A54.177,54.177,0,0,1,42.19,34.993a37.643,37.643,0,0,1,.557,8.076c-.056,1.752-.152,3.5-.34,5.243-.081.757-.468,1.9-.171,2.62a1.2,1.2,0,0,0,2.047.206,5.861,5.861,0,0,0,.445-2.474c.15-1.173.287-2.347.386-3.526.161-1.907.279-3.82.267-5.736A42.756,42.756,0,0,0,43.1,26.7,43.657,43.657,0,0,0,30.18,6.437C26.285,3.078,21.828,1.72,16.771.987A67.227,67.227,0,0,0,7.245,0" transform="translate(3.56)" fill="#cacc89"/>
            <path id="Fill_18" data-name="Fill 18" d="M28.991,0C16.264,0,7.692,10.257,3.64,20.917c-1.527,4.019-1.886,8.431-2.474,12.651C.977,34.921,1.046,36.985.5,38.192c-.2.437-.657.595-.438,1.191a.967.967,0,0,0,.782.653c.8.148,1.932-.725,2.619-1.068,5.7-2.855,9.435-7.27,12.485-12.671a53.925,53.925,0,0,0,4.935-10.5A36.287,36.287,0,0,0,22.2,8.851a26.42,26.42,0,0,0,.178-2.779,5.607,5.607,0,0,0-.738-2.2A18.746,18.746,0,0,1,34.982,3.5a17.1,17.1,0,0,1,9.134,8.259A15.754,15.754,0,0,1,45.237,14.8,10.478,10.478,0,0,0,45.75,17c.795,1.5,2.466.5,2.305-.9A18.082,18.082,0,0,0,42.524,5.575,19.892,19.892,0,0,0,28.991,0" transform="translate(-0.001 31.153)" fill="#cacc89"/>
          </g>
          <rect id="Container-2" data-name="Container" width="141.523" height="268.804" rx="8" transform="translate(42.723)" fill="#e9e9dd"/>
          <circle id="Touch-2" data-name="Touch" cx="13.351" cy="13.351" r="13.351" transform="translate(99.688 225.19)" fill="#fff"/>
          <g id="Camera-2" data-name="Camera" transform="translate(99.688 14.241)">
            <circle id="Lens-2" data-name="Lens" cx="1.78" cy="1.78" r="1.78" fill="#fff"/>
            <rect id="Sensor-2" data-name="Sensor" width="18.692" height="3.56" rx="1.78" transform="translate(8.011)" fill="#fff"/>
          </g>
          <g id="Rows-2" data-name="Rows" transform="translate(55.184 24.922)">
            <g id="Row-5" data-name="Row">
              <rect id="Container-3" data-name="Container" width="116.6" height="48.064" rx="4" fill="#fff"/>
              <g id="Text_Stuff" data-name="Text Stuff" transform="translate(8.011 14.419)">
                <rect id="Label" width="64.976" height="7.21" rx="3" fill="#e9e9dd"/>
                <rect id="Label-2" data-name="Label" width="43.614" height="7.21" rx="3" transform="translate(0 12.016)" fill="#e9e9dd"/>
              </g>
              <g id="Check" transform="translate(97.909 17.802)">
                <circle id="Background-5" data-name="Background" cx="6.231" cy="6.231" r="6.231" fill="#e9e9dd"/>
                <circle id="Indicator" cx="2.67" cy="2.67" r="2.67" transform="translate(3.56 3.56)" fill="#f2f2f2"/>
              </g>
            </g>
            <g id="Row-6" data-name="Row" transform="translate(0 55.185)">
              <rect id="Background-6" data-name="Background" width="116.6" height="37.383" rx="4" fill="#fff"/>
              <g id="Text-5" data-name="Text" transform="translate(34.713 11.215)">
                <rect id="Name-9" data-name="Name" width="64.976" height="5.607" rx="2.804" fill="#e9e9dd"/>
                <rect id="Name-10" data-name="Name" width="43.614" height="5.607" rx="2.804" transform="translate(0 9.346)" fill="#e9e9dd"/>
              </g>
              <circle id="Avatar-5" data-name="Avatar" cx="10.681" cy="10.681" r="10.681" transform="translate(8.011 8.011)" fill="#d6d4c5"/>
            </g>
            <g id="Row-7" data-name="Row" transform="translate(0 99.689)">
              <rect id="Container-4" data-name="Container" width="116.6" height="37.383" rx="4" fill="#fff"/>
              <g id="Text_Stuff-2" data-name="Text Stuff" transform="translate(8.011 11.215)">
                <rect id="Label-3" data-name="Label" width="64.976" height="5.607" rx="2.804" fill="#e9e9dd"/>
                <rect id="Label-4" data-name="Label" width="43.614" height="5.607" rx="2.804" transform="translate(0 9.346)" fill="#c5c3af"/>
              </g>
              <g id="Check-2" data-name="Check" transform="translate(97.909 12.461)">
                <circle id="Background-7" data-name="Background" cx="6.231" cy="6.231" r="6.231" fill="#e9e9dd"/>
                <circle id="Indicator-2" data-name="Indicator" cx="2.67" cy="2.67" r="2.67" transform="translate(3.56 3.56)" fill="#f2f2f2"/>
              </g>
            </g>
            <g id="Row-8" data-name="Row" transform="translate(0 144.193)">
              <rect id="Background-8" data-name="Background" width="116.6" height="37.383" rx="4" fill="#fff"/>
              <g id="Text-6" data-name="Text" transform="translate(34.713 11.215)">
                <rect id="Name-11" data-name="Name" width="64.976" height="5.607" rx="2.804" fill="#e9e9dd"/>
                <rect id="Name-12" data-name="Name" width="43.614" height="5.607" rx="2.804" transform="translate(0 9.346)" fill="#e9e9dd"/>
              </g>
              <circle id="Avatar-6" data-name="Avatar" cx="10.681" cy="10.681" r="10.681" transform="translate(8.011 8.011)" fill="#d6d4c5"/>
            </g>
          </g>
        </g>
        <g id="Web" transform="translate(355.419 96.341)">
          <rect id="Container-5" data-name="Container" width="298.176" height="307.967" rx="8" fill="#f2f2f2"/>
          <rect id="Background-9" data-name="Background" width="62.306" height="72.096" rx="8" transform="translate(221.63 38.273)" fill="#fff"/>
          <g id="Profile_Info" data-name="Profile Info" transform="translate(230.53 51.625)">
            <circle id="Avatar-7" data-name="Avatar" cx="14.241" cy="14.241" r="14.241" transform="translate(8.011)" fill="#e9e9dd"/>
            <rect id="Name-13" data-name="Name" width="44.504" height="5.34" rx="2.67" transform="translate(0 32.043)" fill="#e9e9dd"/>
            <rect id="Name-14" data-name="Name" width="30.263" height="5.34" rx="2.67" transform="translate(7.121 40.944)" fill="#e9e9dd"/>
          </g>
          <path id="Header" d="M7.121,0H291.056a7.121,7.121,0,0,1,7.121,7.121V24.032H0V7.121A7.121,7.121,0,0,1,7.121,0Z" fill="#d6d4c5"/>
          <g id="Buttons" transform="translate(8.011 8.901)">
            <circle id="buttons-2" data-name="buttons" cx="3.56" cy="3.56" r="3.56" fill="#f2f2f2"/>
            <circle id="buttons-3" data-name="buttons" cx="3.56" cy="3.56" r="3.56" transform="translate(10.681)" fill="#f2f2f2"/>
            <circle id="buttons-4" data-name="buttons" cx="3.56" cy="3.56" r="3.56" transform="translate(21.362)" fill="#f2f2f2"/>
          </g>
          <g id="Components" transform="translate(221.63 117.49)">
            <rect id="Background-10" data-name="Background" width="62.306" height="172.675" rx="8" fill="#fff"/>
            <g id="Rows-3" data-name="Rows" transform="translate(16.021 16.021)">
              <path id="Data" d="M4,0H26.263a4,4,0,0,1,4,4V19.142a4,4,0,0,1-4,4H4a4,4,0,0,1-4-4V4A4,4,0,0,1,4,0Z" fill="#e9e9dd"/>
              <rect id="Data-2" data-name="Data" width="30.263" height="22.252" rx="4" transform="translate(0 30.263)" fill="#c5c3af"/>
              <path id="Data-3" data-name="Data" d="M4,0H26.263a4,4,0,0,1,4,4V18.252a4,4,0,0,1-4,4H4a4,4,0,0,1-4-4V4A4,4,0,0,1,4,0Z" transform="translate(0 59.635)" fill="#e9e9dd"/>
              <rect id="Data-4" data-name="Data" width="30.263" height="22.252" rx="4" transform="translate(0 118.38)" fill="#e9e9dd"/>
              <rect id="Data-5" data-name="Data" width="30.263" height="22.252" rx="4" transform="translate(0 89.008)" fill="#d6d4c5"/>
            </g>
          </g>
          <g id="Rows-4" data-name="Rows" transform="translate(14.241 39.163)">
            <g id="Row-9" data-name="Row">
              <rect id="Container-6" data-name="Container" width="200.268" height="41.834" rx="4" fill="#fff"/>
              <g id="Text_Stuff-3" data-name="Text Stuff" transform="translate(8.011 12.55)">
                <rect id="Label-5" data-name="Label" width="148.643" height="6.275" rx="3" fill="#e9e9dd"/>
                <rect id="Label-6" data-name="Label" width="99.774" height="6.275" rx="3" transform="translate(0 10.458)" fill="#e9e9dd"/>
              </g>
              <g id="Check-3" data-name="Check" transform="translate(172.634 14.686)">
                <path id="Background-11" data-name="Background" d="M6.231,0A6.231,6.231,0,1,1,0,6.231,6.231,6.231,0,0,1,6.231,0Z" fill="#e9e9dd"/>
                <circle id="Indicator-3" data-name="Indicator" cx="2.67" cy="2.67" r="2.67" transform="translate(3.56 3.56)" fill="#f2f2f2"/>
              </g>
            </g>
            <g id="Row-10" data-name="Row" transform="translate(0 48.954)">
              <rect id="Container-7" data-name="Container" width="200.268" height="34.713" rx="4" fill="#fff"/>
              <g id="Text_Stuff-4" data-name="Text Stuff" transform="translate(8.011 10.414)">
                <rect id="Label-7" data-name="Label" width="148.643" height="5.207" rx="2.603" fill="#e9e9dd"/>
                <rect id="Label-8" data-name="Label" width="99.774" height="5.207" rx="2.603" transform="translate(0 8.678)" fill="#e9e9dd"/>
              </g>
              <g id="Check-4" data-name="Check" transform="translate(172.634 11.126)">
                <path id="Background-12" data-name="Background" d="M6.231,0A6.231,6.231,0,1,1,0,6.231,6.231,6.231,0,0,1,6.231,0Z" fill="#e9e9dd"/>
                <circle id="Indicator-4" data-name="Indicator" cx="2.67" cy="2.67" r="2.67" transform="translate(3.56 3.56)" fill="#f2f2f2"/>
              </g>
            </g>
            <g id="Row-11" data-name="Row" transform="translate(0 90.788)">
              <rect id="Container-8" data-name="Container" width="200.268" height="34.713" rx="4" fill="#fff"/>
              <g id="Text_Stuff-5" data-name="Text Stuff" transform="translate(8.011 10.414)">
                <rect id="Label-9" data-name="Label" width="148.643" height="5.207" rx="2.603" fill="#e9e9dd"/>
                <rect id="Label-10" data-name="Label" width="99.774" height="5.207" rx="2.603" transform="translate(0 8.678)" fill="#e9e9dd"/>
              </g>
              <g id="Check-5" data-name="Check" transform="translate(172.634 11.126)">
                <path id="Background-13" data-name="Background" d="M6.231,0A6.231,6.231,0,1,1,0,6.231,6.231,6.231,0,0,1,6.231,0Z" fill="#e9e9dd"/>
                <circle id="Indicator-5" data-name="Indicator" cx="2.67" cy="2.67" r="2.67" transform="translate(3.56 3.56)" fill="#c5c3af"/>
              </g>
            </g>
            <g id="Row-12" data-name="Row" transform="translate(0 216.289)">
              <rect id="Container-9" data-name="Container" width="200.268" height="34.713" rx="4" fill="#fff"/>
              <g id="Text_Stuff-6" data-name="Text Stuff" transform="translate(8.011 10.414)">
                <rect id="Label-11" data-name="Label" width="148.643" height="5.207" rx="2.603" fill="#e9e9dd"/>
                <rect id="Label-12" data-name="Label" width="99.774" height="5.207" rx="2.603" transform="translate(0 8.678)" fill="#e9e9dd"/>
              </g>
              <g id="Check-6" data-name="Check" transform="translate(172.634 11.126)">
                <path id="Background-14" data-name="Background" d="M6.231,0A6.231,6.231,0,1,1,0,6.231,6.231,6.231,0,0,1,6.231,0Z" fill="#e9e9dd"/>
                <circle id="Indicator-6" data-name="Indicator" cx="2.67" cy="2.67" r="2.67" transform="translate(3.56 3.56)" fill="#f2f2f2"/>
              </g>
            </g>
            <g id="Row-13" data-name="Row" transform="translate(0 174.455)">
              <rect id="Container-10" data-name="Container" width="200.268" height="34.713" rx="4" fill="#fff"/>
              <g id="Text_Stuff-7" data-name="Text Stuff" transform="translate(8.011 10.414)">
                <rect id="Label-13" data-name="Label" width="148.643" height="5.207" rx="2.603" fill="#e9e9dd"/>
                <rect id="Label-14" data-name="Label" width="99.774" height="5.207" rx="2.603" transform="translate(0 8.678)" fill="#e9e9dd"/>
              </g>
              <g id="Check-7" data-name="Check" transform="translate(172.634 11.126)">
                <path id="Background-15" data-name="Background" d="M6.231,0A6.231,6.231,0,1,1,0,6.231,6.231,6.231,0,0,1,6.231,0Z" fill="#e9e9dd"/>
                <circle id="Indicator-7" data-name="Indicator" cx="2.67" cy="2.67" r="2.67" transform="translate(3.56 3.56)" fill="#f2f2f2"/>
              </g>
            </g>
            <g id="Row-14" data-name="Row" transform="translate(0 132.622)">
              <rect id="Container-11" data-name="Container" width="200.268" height="34.713" rx="4" fill="#fff"/>
              <g id="Text_Stuff-8" data-name="Text Stuff" transform="translate(8.011 10.414)">
                <rect id="Label-15" data-name="Label" width="148.643" height="5.207" rx="2.603" fill="#e9e9dd"/>
                <rect id="Label-16" data-name="Label" width="99.774" height="5.207" rx="2.603" transform="translate(0 8.678)" fill="#e9e9dd"/>
              </g>
              <g id="Check-8" data-name="Check" transform="translate(172.634 11.126)">
                <path id="Background-16" data-name="Background" d="M6.231,0A6.231,6.231,0,1,1,0,6.231,6.231,6.231,0,0,1,6.231,0Z" fill="#e9e9dd"/>
                <circle id="Indicator-8" data-name="Indicator" cx="2.67" cy="2.67" r="2.67" transform="translate(3.56 3.56)" fill="#f2f2f2"/>
              </g>
            </g>
          </g>
        </g>
        <path id="Fill_1" data-name="Fill 1" d="M113.918,3c-3.511-2.382-8.176-3-12.381-3C85.127,0,69.7,6.088,56.379,15.16A105.627,105.627,0,0,0,36.78,33.05a52.4,52.4,0,0,0-8.4,12.5,43.058,43.058,0,0,0-3.051,9.629A98.938,98.938,0,0,0,23.6,67.468c-.114,1.62-1.055,10.215,1.639,10.361a3.718,3.718,0,0,0,0,.595c-5.848,9.145-9.462,19.861-12.812,30.021a204.482,204.482,0,0,0-7.2,26.9A293.18,293.18,0,0,0,.853,171.83C.7,174.455.6,177.081.514,179.707Q.4,183.071.29,186.433c-.082,2.513-.524,5.405-.125,7.9.348,2.175,2.231,1.846,2.314-.319.1-2.614.085-5.234.2-7.85q.228-5.209.479-10.414A243.518,243.518,0,0,1,16.967,105.1,164.736,164.736,0,0,1,28.96,78.632,184.58,184.58,0,0,1,43.689,57.119,136.374,136.374,0,0,1,60.433,38.567,128.774,128.774,0,0,1,76.9,26.455c7.326-4.648,14.636-9.187,22.568-12.756,4.124-1.855,8.325-3.516,12.48-5.3.748-.32,1.55-.631,2.269-1,2.4-1.237,1.609-3.1-.3-4.4" transform="translate(657.393 270.793)" fill="#dfe2c1"/>
        <path id="Fill_20" data-name="Fill 20" d="M-63,0A45.315,45.315,0,0,1-44.288,3.51a83.16,83.16,0,0,1,14.8,8.6C-22.9,16.733-17.71,22.118-14.078,29.253c2.17,4.263,3.761,10.295,2.3,14.944-1.717,5.476-6.43,10.044-12.639,9.079-3.839-.6-7.358-3.138-10.276-5.529a38.86,38.86,0,0,1-8.59-10.124c-3.763-6.231-5.975-13.279-9.168-19.793-1.513-3.091-2.983-6.2-4.8-9.142a14.748,14.748,0,0,0-3.221-3.977c-.73-.579-3.808-1.579-2.631-2.878-17.259.227-32.548,13.482-35.862,29.889-.309,1.529-.55,3.071-.8,4.61-.161.972-.1,4.555-.965,5.175-1.915,1.369-1.11-2.79-1.028-3.389q.319-2.321.676-4.638a38.6,38.6,0,0,1,11.26-22.192C-82.69,4.441-73.072,0-63,0" transform="translate(763.999 357.336)" fill="#cacc89"/>
        <g id="Plant" transform="translate(56.644 341.481)">
          <path id="Fill_19" data-name="Fill 19" d="M8.845,31.808C25.456,59.682,44.81,86.671,56.43,117.146c-.468-3.592-.965-7.18-1.52-10.764-2.949-19-6.613-37.851-10.465-56.685C42.487,40.109,40.41,30.555,38.283,21c-1.143-5.131-2.273-10.265-3.441-15.393C34.559,4.361,34.316,2.2,33.961,0,45.256,37.06,56.147,74.144,64.113,112.1q1.567,7.471,2.664,14.916c.249-1.132.495-2.264.763-3.394A219.318,219.318,0,0,1,81.353,84a120.117,120.117,0,0,1,9.635-17.488c2.321-3.438,7.794-7.526,9.912-11.048-11.58,21.238-15.761,47.812-22.447,70.9-1.632,5.635-3.274,11.26-4.883,16.9,10.083-20.221,25.723-36.835,47.478-44.035-26.329,17.4-42.12,47.86-52.762,79.019-.035.369-.077.739-.113,1.109,3.131-5.943,7.076-11.318,12.422-15.083,11.442-8.06,24.135-5.712,35.235,1.2-8.711-5.537-24.454-.495-31.784,5.133-5.251,4.028-9.731,9.435-13.625,14.707-.933,1.264-2.207,2.739-3.551,4.312a194.4,194.4,0,0,1-9.307,36.454c.718-3.462.2-9,.4-11.577.021-.279.039-.559.061-.838q-.992,3.96-1.915,7.818a107.006,107.006,0,0,0,2.4-15.186q.2-3.332.4-6.664-.066-6.32-.511-12.686c-1.041-4.12-2.207-8.005-3.169-11.237a145.255,145.255,0,0,0-14.816-33.253,131.279,131.279,0,0,0-20.442-25.916c-4.255-4.2-8.708-8.2-13.1-12.252-1.588-1.466-4.425-5.073-6.879-6.948,17.873,9.854,36.27,20.514,49.31,36.39q-2.293-8.8-4.945-17.328C35.452,87.632,24.2,57.813,8.845,31.808Z" transform="translate(0.005)" fill="#e9e9dd"/>
          <path id="Base" d="M0,0C0,31.954,2.53,57.855,36.493,57.855S72.986,31.954,72.986,0" transform="translate(26.707 189.587)" fill="#d6d4c5"/>
        </g>
        <g id="Graph" transform="translate(595.435 0)">
          <rect id="Value" width="5.34" height="22.252" rx="2.67" transform="translate(0 28.483)" fill="#e9e9dd"/>
          <rect id="Value-2" data-name="Value" width="5.34" height="36.493" rx="2.67" transform="translate(12.461 14.241)" fill="#e9e9dd"/>
          <rect id="Value-3" data-name="Value" width="5.34" height="43.614" rx="2.67" transform="translate(24.922 7.121)" fill="#e9e9dd"/>
          <rect id="Value-4" data-name="Value" width="5.34" height="36.493" rx="2.67" transform="translate(37.383 14.241)" fill="#e9e9dd"/>
          <rect id="Value-5" data-name="Value" width="5.34" height="50.734" rx="2.67" transform="translate(49.844)" fill="#d6d4c5"/>
        </g>
        <g id="Pie_Chart" data-name="Pie Chart" transform="translate(66.297 334.493) rotate(180)">
          <path id="Value-6" data-name="Value" d="M0,18.029A17.972,17.972,0,0,1,17.8,0V18.029L5.636,31.153A17.867,17.867,0,0,1,0,18.029Z" transform="translate(35.603 35.603) rotate(180)" fill="#f2f2f2"/>
          <path id="Value-7" data-name="Value" d="M12.283,0h17.98a17.814,17.814,0,0,1-4.9,12.166A18.119,18.119,0,0,1,12.283,17.8,18.375,18.375,0,0,1,0,12.957Z" transform="translate(30.558 17.802) rotate(180)" fill="#c5c3af"/>
          <path id="Value-8" data-name="Value" d="M17.8,17.8H35.6a17.575,17.575,0,0,0-1.4-6.911A17.98,17.98,0,0,0,24.713,1.4,17.575,17.575,0,0,0,17.8,0Zm-1.78-1.78h0L8.9,0A16.336,16.336,0,0,0,0,8.9Z" transform="translate(35.603 35.603) rotate(180)" fill="#d6d4c5"/>
        </g>
        <g id="Chart" transform="translate(733.873 292.182)">
          <path id="Value-9" data-name="Value" d="M33.626,33.092A9.357,9.357,0,1,1,26.8,17.357V0a26.7,26.7,0,0,0,0,53.4A26.426,26.426,0,0,0,46.3,44.949Z" transform="translate(-0.1)" fill="#f2f2f2"/>
          <path id="Value-10" data-name="Value" d="M0,0V17.357A9.346,9.346,0,0,1,9.346,26.7H26.7A26.784,26.784,0,0,0,0,0Z" transform="translate(26.613)" fill="#c5c3af"/>
          <path id="Value-11" data-name="Value" d="M3.649,0A9.47,9.47,0,0,1,0,7.468L10.914,21.362A27.07,27.07,0,0,0,21.362,0Z" transform="translate(31.954 26.702)" fill="#d6d4c5"/>
        </g>
        <g id="Chart-2" data-name="Chart" transform="translate(522.721 11.376)">
          <path id="Value-12" data-name="Value" d="M25.858,25.367A7.186,7.186,0,1,1,20.606,13.3V0A20.6,20.6,0,0,0,0,20.477,20.6,20.6,0,0,0,20.605,40.944a20.359,20.359,0,0,0,15-6.482Z" transform="translate(0)" fill="#f2f2f2"/>
          <path id="Value-13" data-name="Value" d="M0,0V13.307a7.165,7.165,0,0,1,7.165,7.165H20.472A20.535,20.535,0,0,0,0,0Z" transform="translate(20.472)" fill="#c5c3af"/>
          <path id="Value-14" data-name="Value" d="M2.735,0A7.1,7.1,0,0,1,0,5.6l8.189,10.42A20.3,20.3,0,0,0,16.021,0Z" transform="translate(24.922 20.472)" fill="#d6d4c5"/>
        </g>
        <g id="Image" transform="translate(86.996 5.34)">
          <path id="Fill_35" data-name="Fill 35" d="M1.005.985C1,1,1,1,.993,1.014,1,1.005,1.005.969,1.005.985" transform="translate(41.725 45.286)" fill="#d6d4c5"/>
          <path id="Fill_37" data-name="Fill 37" d="M1,1a.077.077,0,0,0,0,.009C1,1,1.012.973,1,1" transform="translate(41.724 45.285)" fill="#d6d4c5"/>
          <path id="Fill_39" data-name="Fill 39" d="M1.052.832C1.04.868,1.024.9,1.01.937c.007-.018.014-.032.021-.05-.185.463-.068.162.021-.055" transform="translate(41.731 45.303)" fill="#d6d4c5"/>
          <path id="Fill_41" data-name="Fill 41" d="M1.017.953,1,1c-.052.1.021-.05.021-.05" transform="translate(41.726 45.289)" fill="#d6d4c5"/>
          <path id="Fill_43" data-name="Fill 43" d="M1,1Z" transform="translate(41.724 45.284)" fill="#d6d4c5"/>
          <path id="Fill_45" data-name="Fill 45" d="M1,1H1" transform="translate(41.724 45.284)" fill="#d6d4c5"/>
          <path id="Fill_47" data-name="Fill 47" d="M.99,1.012c-.011.021.05-.082,0,0" transform="translate(41.725 45.286)" fill="#d6d4c5"/>
          <path id="Fill_49" data-name="Fill 49" d="M1,1H1" transform="translate(41.724 45.284)" fill="#d6d4c5"/>
          <rect id="Photo_Background" data-name="Photo Background" width="84.557" height="56.075" rx="4" fill="#e9e9dd"/>
          <g id="icons8-night_landscape" transform="translate(7.121 16.021)">
            <path id="Mountains" d="M24.922,0,0,40.054H49.844Z" fill="#c5c3af"/>
            <path id="Mountains-2" data-name="Mountains" d="M21.807,0,0,29.373H43.614Z" transform="translate(27.592 10.681)" fill="#d6d4c5"/>
          </g>
          <circle id="Sun" cx="8.011" cy="8.011" r="8.011" transform="translate(57.855 10.681)" fill="#fff"/>
        </g>
        <g id="Image-2" data-name="Image" transform="translate(751.544 515.693) rotate(180)">
          <path id="Fill_35-2" data-name="Fill 35" d="M0,0A.077.077,0,0,0,.012.031C.007.026,0-.009,0,0" transform="translate(63.202 15.15) rotate(180)" fill="#d6d4c5"/>
          <path id="Fill_37-2" data-name="Fill 37" d="M.007.012a.077.077,0,0,1,0,.009c0-.009-.016-.036,0-.009" transform="translate(63.2 15.141) rotate(180)" fill="#d6d4c5"/>
          <path id="Fill_39-2" data-name="Fill 39" d="M0,0C.012.036.028.069.043.105.036.089.028.073.021.055.206.518.089.217,0,0" transform="translate(63.255 15.281) rotate(180)" fill="#d6d4c5"/>
          <path id="Fill_41-2" data-name="Fill 41" d="M0,0,.021.05C.073.15,0,0,0,0" transform="translate(63.215 15.173) rotate(180)" fill="#d6d4c5"/>
          <path id="Fill_43-2" data-name="Fill 43" d="M0,0Z" transform="translate(63.196 15.132) rotate(180)" fill="#d6d4c5"/>
          <path id="Fill_45-2" data-name="Fill 45" d="M0,0H0" transform="translate(63.196 15.133) rotate(180)" fill="#d6d4c5"/>
          <path id="Fill_47-2" data-name="Fill 47" d="M.02.032c.011.021-.05-.082,0,0" transform="translate(63.207 15.149) rotate(180)" fill="#d6d4c5"/>
          <path id="Fill_49-2" data-name="Fill 49" d="M0,0H0" transform="translate(63.197 15.133) rotate(180)" fill="#d6d4c5"/>
          <rect id="Photo_Background-2" data-name="Photo Background" width="126.391" height="83.667" rx="4" transform="translate(126.391 83.667) rotate(180)" fill="#e9e9dd"/>
          <g id="icons8-night_landscape-2" data-name="icons8-night_landscape" transform="translate(10.388)">
            <path id="Mountains-3" data-name="Mountains" d="M36.542,0,73.084,59.635H0Z" transform="translate(73.084 59.635) rotate(180)" fill="#c5c3af"/>
            <path id="Mountains-4" data-name="Mountains" d="M32.305,0,64.611,43.662H0Z" transform="translate(106.525 43.662) rotate(180)" fill="#d6d4c5"/>
          </g>
          <circle id="Sun-2" data-name="Sun" cx="12.016" cy="12.016" r="12.016" transform="translate(110.37 67.646) rotate(180)" fill="#fff"/>
        </g>
      </g>
    </g>
    <g id="_Human_Standing" data-name="ðŸ˜Human/Standing" transform="translate(-1589.377 -6860.223)">
      <g id="Head_Front" data-name="Head/Front" transform="translate(97.309 0)">
        <g id="Head" transform="translate(0.099 1.757)">
          <path id="Head-2" data-name="Head" d="M0,64.976,7.354,30.7C3.253,25.884.477,19.984.941,13.374,2.276-5.673,28.793-1.483,33.95,8.131s4.546,34-2.12,35.718c-2.659.685-8.321-.993-14.085-4.467l3.617,25.594Z" transform="translate(0 -0.001)" fill="#b28b67"/>
        </g>
        <path id="Hair" d="M17.985,40.1C16.55,35.766,16,23.289,15.871,19.6a5.4,5.4,0,0,0-.641-.038A5.34,5.34,0,0,0,11.5,28.724c-1.236,1.744-2.62,3.567-4.207,5.446C1.328,30.595-3.095,20.124,2.734,10.065,4.345,5.137,7.993,2.505,12.3,1.283A15.494,15.494,0,0,1,22.468.535c5.994.514,11.346,2.343,12.863,3.428,0,5.674-1.1,7.357-10.49,7.21-2.307,1.219-4.082,3.317-5.93,6.068.013.183,1.255,17.09,6.49,17.09,5.262,0,9.728-3.341,12.037-3.341,1.683,0,1.308,2.107.191,3.668-.92,1.289-5.4,2.53-5.4,4.529,0,1.128,1.13,1.126,2.112,1.124.757,0,1.429,0,1.429.514,0,1.958.623,5.644-2.779,5.644C29.546,46.463,19.676,45.21,17.985,40.1Z" transform="translate(0 -0.007)" fill="#cecb13"/>
      </g>
      <g id="Bottom_Skinny_Jeans_1" data-name="Bottom/Skinny Jeans 1" transform="translate(40.443 140.608)">
        <path id="Leg" d="M0,0,32.27,113.242l23.544,83.465H72.986L47.967,0Z" transform="translate(49.844)" fill="#dfdc1c"/>
        <path id="Leg-2" data-name="Leg" d="M39.625,0c-.747,58.366-3.293,90.2-4.076,95.505S22.916,134.541,0,196.707H17.789q43.761-89.453,48.856-101.2C70.043,87.673,80.531,55.84,96.319,0Z" transform="translate(1.59)" fill="#f3f00d"/>
        <g id="Left_Shoe" data-name="Left Shoe" transform="translate(0 194.037)">
          <path id="Shoe" d="M0,18.692.89,0H19.582C32.876,9.346,54.295,15.131,54.295,15.131v3.56H20.472L8.9,16.911v1.78Z" transform="translate(0 0)" fill="#cecb13"/>
        </g>
        <g id="Right_Shoe" data-name="Right Shoe" transform="translate(103.249 194.037)">
          <path id="Shoe-2" data-name="Shoe" d="M0,18.692.89,0H19.582C32.876,9.346,54.295,15.131,54.295,15.131v3.56H20.472L8.9,16.911v1.78Z" transform="translate(0 0)" fill="#cecb13"/>
        </g>
      </g>
      <g id="Body_Long_Sleeve_1" data-name="Body/Long Sleeve 1" transform="translate(0 46.689)">
        <path id="Skin" d="M28.522,75.144c-1.323-1.981-2.8-3.962-6.943-2.7C14.2,74.693,8.116,79.788.812,73.729c-.9-.742-1.655-3.18,1.2-4.6,7.11-3.535,17.55-10.005,19.172-12.389C24.5,51.864,43.7,0,43.7,0L59.47,2.289S34.09,57.362,32.255,60.541C29.5,65.31,32.739,73.614,34,78.01a5.341,5.341,0,0,1-1.478.231C30.49,78.238,29.55,76.693,28.522,75.144ZM185.264,38.487,158.028,24.9l7.343-15.042,26.868,22.779a76.427,76.427,0,0,1,18.713,9.079c1.14,1.2,2.454,3.545-2.568,2.8s-10.337-1.3-11.154.378,2.094,3.947.523,6.173a.659.659,0,0,1-.57.29q-2.426.007-11.921-12.868Z" transform="translate(0.001 69.474)" fill="#b28b67"/>
        <path id="Coat_Back" data-name="Coat Back" d="M0,4.069,9.45,0C25.535,31.821,48.014,62.006,83.265,86.078l-6.906,14.745c-30.4-14.5-58.921-25.334-72.265-49.916C-.379,42.657.593,14.351,0,4.069Z" transform="translate(109.952 1.153) rotate(4.992)" fill="#d5d6c5"/>
        <path id="Shirt" d="M0,96.4s41.973,4.45,66.076,0c1.991-.368,2.3-3.7,1.381-5.964C53.081,55.2,43.222,24.467,43.222,0c-3.956,1.995-13.85.6-13.85.6C11.648,25.812,3.5,54.74,0,96.4Z" transform="translate(76.046 1.977)" fill="#373735"/>
        <path id="Coat_Front" data-name="Coat Front" d="M20.11,192.367c1.912-39.95,16.644-87.724,31.9-128.291C40.75,75.279,27.6,94.056,16.974,125.314L0,120.962C17.3,46.425,67.974,7.985,77.808,1.124l.287-.662h.677c.457-.308.7-.461.7-.461l-.026.461h7.388c1.72,10.116,7.145,147.1,23.892,191.906Z" transform="translate(21.567 -0.001)" fill="#e9e9dd"/>
      </g>
    </g>
  </g>
</svg>
