<svg xmlns="http://www.w3.org/2000/svg" width="655.138" height="523.635" viewBox="0 0 655.138 523.635">
  <g id="loginIllustratios" transform="translate(0)">
    <rect id="Retângulo_143" data-name="Retângulo 143" width="59.41" height="17.961" rx="7.43" transform="translate(133.928 89.805)" fill="#f3f00d" opacity="0.1"/>
    <rect id="Retângulo_144" data-name="Retângulo 144" width="59.41" height="17.961" rx="7.43" transform="translate(196.101 107.767)" fill="#f3f00d" opacity="0.1"/>
    <rect id="Retângulo_145" data-name="Retângulo 145" width="59.41" height="17.961" rx="7.43" transform="translate(258.274 125.728)" fill="#f3f00d" opacity="0.1"/>
    <rect id="Retângulo_146" data-name="Retângulo 146" width="59.41" height="17.961" rx="7.43" transform="translate(133.928 62.864)" fill="#f3f00d" opacity="0.1"/>
    <rect id="Retângulo_147" data-name="Retângulo 147" width="59.41" height="17.961" rx="7.43" transform="translate(196.101 80.825)" fill="#f3f00d" opacity="0.1"/>
    <rect id="Retângulo_148" data-name="Retângulo 148" width="59.41" height="17.961" rx="7.43" transform="translate(258.274 98.786)" fill="#f3f00d" opacity="0.1"/>
    <rect id="Retângulo_149" data-name="Retângulo 149" width="59.41" height="17.961" rx="7.43" transform="translate(327.355 89.805)" fill="#f3f00d" opacity="0.1"/>
    <rect id="Retângulo_150" data-name="Retângulo 150" width="59.41" height="17.961" rx="7.43" transform="translate(389.528 107.767)" fill="#f3f00d" opacity="0.1"/>
    <rect id="Retângulo_151" data-name="Retângulo 151" width="59.41" height="17.961" rx="7.43" transform="translate(451.701 125.728)" fill="#f3f00d" opacity="0.1"/>
    <rect id="Retângulo_152" data-name="Retângulo 152" width="59.41" height="17.961" rx="7.43" transform="translate(327.355 62.864)" fill="#f3f00d" opacity="0.1"/>
    <rect id="Retângulo_153" data-name="Retângulo 153" width="59.41" height="17.961" rx="7.43" transform="translate(389.528 80.825)" fill="#f3f00d" opacity="0.1"/>
    <rect id="Retângulo_154" data-name="Retângulo 154" width="59.41" height="17.961" rx="7.43" transform="translate(451.701 98.786)" fill="#f3f00d" opacity="0.1"/>
    <rect id="Retângulo_155" data-name="Retângulo 155" width="59.41" height="17.961" rx="7.43" transform="translate(133.928 26.942)" fill="#f3f00d" opacity="0.1"/>
    <rect id="Retângulo_156" data-name="Retângulo 156" width="59.41" height="17.961" rx="7.43" transform="translate(196.101 44.903)" fill="#f3f00d" opacity="0.1"/>
    <rect id="Retângulo_157" data-name="Retângulo 157" width="59.41" height="17.961" rx="7.43" transform="translate(258.274 62.864)" fill="#f3f00d" opacity="0.1"/>
    <rect id="Retângulo_158" data-name="Retângulo 158" width="59.41" height="17.961" rx="7.43" transform="translate(133.928)" fill="#f3f00d" opacity="0.1"/>
    <rect id="Retângulo_159" data-name="Retângulo 159" width="59.41" height="17.961" rx="7.43" transform="translate(196.101 17.961)" fill="#f3f00d" opacity="0.1"/>
    <rect id="Retângulo_160" data-name="Retângulo 160" width="59.41" height="17.961" rx="7.43" transform="translate(258.274 35.922)" fill="#f3f00d" opacity="0.1"/>
    <rect id="Retângulo_161" data-name="Retângulo 161" width="59.41" height="17.961" rx="7.43" transform="translate(327.355 26.942)" fill="#f3f00d" opacity="0.1"/>
    <rect id="Retângulo_162" data-name="Retângulo 162" width="59.41" height="17.961" rx="7.43" transform="translate(389.528 44.903)" fill="#f3f00d" opacity="0.1"/>
    <rect id="Retângulo_163" data-name="Retângulo 163" width="59.41" height="17.961" rx="7.43" transform="translate(451.701 62.864)" fill="#f3f00d" opacity="0.1"/>
    <rect id="Retângulo_164" data-name="Retângulo 164" width="59.41" height="17.961" rx="7.43" transform="translate(327.355)" fill="#f3f00d" opacity="0.1"/>
    <rect id="Retângulo_165" data-name="Retângulo 165" width="59.41" height="17.961" rx="7.43" transform="translate(389.528 17.961)" fill="#f3f00d" opacity="0.1"/>
    <rect id="Retângulo_166" data-name="Retângulo 166" width="59.41" height="17.961" rx="7.43" transform="translate(451.701 35.922)" fill="#f3f00d" opacity="0.1"/>
    <rect id="Retângulo_167" data-name="Retângulo 167" width="59.41" height="17.961" rx="7.43" transform="translate(133.928 409.651)" fill="#f3f00d" opacity="0.1"/>
    <rect id="Retângulo_168" data-name="Retângulo 168" width="59.41" height="17.961" rx="7.43" transform="translate(196.101 427.612)" fill="#f3f00d" opacity="0.1"/>
    <rect id="Retângulo_169" data-name="Retângulo 169" width="59.41" height="17.961" rx="7.43" transform="translate(258.274 445.573)" fill="#f3f00d" opacity="0.1"/>
    <rect id="Retângulo_170" data-name="Retângulo 170" width="59.41" height="17.961" rx="7.43" transform="translate(133.928 382.709)" fill="#f3f00d" opacity="0.1"/>
    <rect id="Retângulo_171" data-name="Retângulo 171" width="59.41" height="17.961" rx="7.43" transform="translate(196.101 400.67)" fill="#f3f00d" opacity="0.1"/>
    <rect id="Retângulo_172" data-name="Retângulo 172" width="59.41" height="17.961" rx="7.43" transform="translate(258.274 418.632)" fill="#f3f00d" opacity="0.1"/>
    <rect id="Retângulo_173" data-name="Retângulo 173" width="59.41" height="17.961" rx="7.43" transform="translate(327.355 409.651)" fill="#f3f00d" opacity="0.1"/>
    <rect id="Retângulo_174" data-name="Retângulo 174" width="59.41" height="17.961" rx="7.43" transform="translate(389.528 427.612)" fill="#f3f00d" opacity="0.1"/>
    <rect id="Retângulo_175" data-name="Retângulo 175" width="59.41" height="17.961" rx="7.43" transform="translate(451.701 445.573)" fill="#f3f00d" opacity="0.1"/>
    <rect id="Retângulo_176" data-name="Retângulo 176" width="59.41" height="17.961" rx="7.43" transform="translate(327.355 382.709)" fill="#f3f00d" opacity="0.1"/>
    <rect id="Retângulo_177" data-name="Retângulo 177" width="59.41" height="17.961" rx="7.43" transform="translate(389.528 400.67)" fill="#f3f00d" opacity="0.1"/>
    <rect id="Retângulo_178" data-name="Retângulo 178" width="59.41" height="17.961" rx="7.43" transform="translate(451.701 418.632)" fill="#f3f00d" opacity="0.1"/>
    <rect id="Retângulo_179" data-name="Retângulo 179" width="59.41" height="17.961" rx="7.43" transform="translate(133.928 346.787)" fill="#f3f00d" opacity="0.1"/>
    <rect id="Retângulo_180" data-name="Retângulo 180" width="59.41" height="17.961" rx="7.43" transform="translate(196.101 364.748)" fill="#f3f00d" opacity="0.1"/>
    <rect id="Retângulo_181" data-name="Retângulo 181" width="59.41" height="17.961" rx="7.43" transform="translate(258.274 382.709)" fill="#f3f00d" opacity="0.1"/>
    <rect id="Retângulo_182" data-name="Retângulo 182" width="59.41" height="17.961" rx="7.43" transform="translate(133.928 319.846)" fill="#f3f00d" opacity="0.1"/>
    <rect id="Retângulo_183" data-name="Retângulo 183" width="59.41" height="17.961" rx="7.43" transform="translate(196.101 337.807)" fill="#f3f00d" opacity="0.1"/>
    <rect id="Retângulo_184" data-name="Retângulo 184" width="59.41" height="17.961" rx="7.43" transform="translate(258.274 355.768)" fill="#f3f00d" opacity="0.1"/>
    <rect id="Retângulo_185" data-name="Retângulo 185" width="59.41" height="17.961" rx="7.43" transform="translate(327.355 346.787)" fill="#f3f00d" opacity="0.1"/>
    <rect id="Retângulo_186" data-name="Retângulo 186" width="59.41" height="17.961" rx="7.43" transform="translate(389.528 364.748)" fill="#f3f00d" opacity="0.1"/>
    <rect id="Retângulo_187" data-name="Retângulo 187" width="59.41" height="17.961" rx="7.43" transform="translate(451.701 382.709)" fill="#f3f00d" opacity="0.1"/>
    <rect id="Retângulo_188" data-name="Retângulo 188" width="59.41" height="17.961" rx="7.43" transform="translate(327.355 319.846)" fill="#f3f00d" opacity="0.1"/>
    <rect id="Retângulo_189" data-name="Retângulo 189" width="59.41" height="17.961" rx="7.43" transform="translate(389.528 337.807)" fill="#f3f00d" opacity="0.1"/>
    <rect id="Retângulo_190" data-name="Retângulo 190" width="59.41" height="17.961" rx="7.43" transform="translate(451.701 355.768)" fill="#f3f00d" opacity="0.1"/>
    <ellipse id="Elipse_2" data-name="Elipse 2" cx="302.921" cy="24.869" rx="302.921" ry="24.869" transform="translate(30.306 473.896)" fill="#f3f00d" opacity="0.1"/>
    <path id="Caminho_10" data-name="Caminho 10" d="M184.3,254.184c28.565,12.379,44.979,37.995,44.979,37.995s-29.905,5.526-58.477-6.846-44.979-37.995-44.979-37.995S155.725,241.8,184.3,254.184Z" transform="translate(-125.82 -125.141)" fill="#f3f00d"/>
    <path id="Caminho_11" data-name="Caminho 11" d="M333.728,179.415C342.563,164.908,357.609,158,357.609,158s.691,16.538-8.117,31S325.6,210.37,325.6,210.37,324.885,193.839,333.728,179.415Z" transform="translate(-187.587 -97.899)" fill="#f3f00d"/>
    <path id="Caminho_12" data-name="Caminho 12" d="M242.183,191.639c6.321,22.562,23.743,37.414,23.743,37.414s7.178-21.74.857-44.309-23.75-37.414-23.75-37.414S235.855,169.07,242.183,191.639Z" transform="translate(-160.992 -94.6)" fill="#10100b"/>
    <rect id="Retângulo_191" data-name="Retângulo 191" width="503.601" height="252.146" rx="7.21" transform="translate(82.117 96.023)" fill="#191913"/>
    <path id="Caminho_13" data-name="Caminho 13" d="M118.87,482h503.6v10.217a4.981,4.981,0,0,1-4.981,4.981H123.851a4.981,4.981,0,0,1-4.981-4.981Z" transform="translate(-36.753 -149.029)" opacity="0.1"/>
    <rect id="Retângulo_192" data-name="Retângulo 192" width="37.304" height="18.652" rx="2.5" transform="translate(131.164 314.319)" fill="#f3f00d"/>
    <rect id="Retângulo_193" data-name="Retângulo 193" width="25.56" height="2.763" rx="1.382" transform="translate(178.83 330.208)" fill="#f3f00d"/>
    <path id="Caminho_14" data-name="Caminho 14" d="M333.511,276.072c18.23,3.364,36.827,0,54.982-2.28l55.175-6.908c2.231-.283,5.478-1.617,6.791,1.112.739,1.527.242,4.836.3,6.59.145,4.836.131,9.671,0,14.507-.249,9.243-.926,18.465-1.789,27.667-1.679,18.009-4.055,35.922-5.243,54-.608,9.2-.912,18.431-.642,27.632.062,2.2.152,4.394.283,6.583.145,2.452,1.243,6.093-1.43,7.73-1.527.939-4.532.891-6.279,1.167-2.763.435-5.526.781-8.345,1.064-18.576,1.858-37.394,1.085-56.039.974l-56.3-.29-13.733-.076c-1.243,0-5.727.746-6.494-.732-.325-.629.539-3.572.691-4.359q.318-1.948.691-3.889c1.6-9.084,3.5-18.113,5.4-27.135,4.1-19.343,8.29-38.782,9.975-58.539.836-9.913.283-19.916,1.306-29.808.477-4.594,1.043-14.846,7.157-15.253,5.181-.345,10.514,0,15.709,0a1.036,1.036,0,1,0,0-2.072c-4.9,0-9.816-.131-14.721-.035-3.261.062-5.526.836-7.081,3.834-3.972,7.7-3.565,17.961-3.689,26.361-.3,20.109-3.385,39.791-7.405,59.458-2.024,9.9-4.207,19.764-6.217,29.67-.946,4.732-1.851,9.478-2.68,14.238-.387,2.266-2.342,7.26-.622,9.34s7.012.96,9.381.974l16.483.1,31.584.18c20.407.117,40.882.691,61.282.09,9.74-.29,20.034-.691,29.518-3.019,2.825-.691,4.186-1.99,4.3-5,.166-4.67-.594-9.485-.691-14.175-.691-40.136,8.739-79.713,7.772-119.863-.062-2.729.967-9.609-2.017-11.26-1.34-.746-3.081-.338-4.49-.173-2.694.311-5.381.691-8.076,1.009l-34.99,4.366c-11.184,1.382-22.362,2.874-33.566,4.145-11.861,1.382-23.84,2.2-35.66,0-1.306-.242-1.865,1.755-.553,2Z" transform="translate(-177.374 -130.739)" fill="#f3f00d"/>
    <path id="Caminho_15" data-name="Caminho 15" d="M319.554,312.772,457.591,306c1.333-.069,1.34-2.142,0-2.072L319.554,310.7C318.227,310.761,318.22,312.834,319.554,312.772Z" transform="translate(-185.412 -143.019)" fill="#f3f00d"/>
    <path id="Caminho_16" data-name="Caminho 16" d="M381.138,289.011a3.454,3.454,0,0,0,1.223,5.575c1.858.85,4.041.138,5.886-.325,2.763-.691,5.526-1.306,8.366-1.81a114.086,114.086,0,0,1,18.714-1.741c2.86-.035,5.7.1,8.559.221,2.072.083,4.3.249,6.058-1.036,2-1.465,2.653-4.324.691-6.107-2.763-2.521-8.718-1.057-11.91-.794a267.082,267.082,0,0,0-34.444,5.14c-1.3.276-.753,2.28.553,2q11.239-2.425,22.652-3.9,5.609-.691,11.24-1.167c1.768-.145,3.537-.276,5.305-.38.691-.041,1.423-.117,2.128-.1,2.19.048,2.445-.345,1.133,2.3-1.167,2.342-.794,2.072-2.819,2-.857,0-1.713-.1-2.57-.138q-2.632-.111-5.264-.117-5.6,0-11.177.539c-3.15.3-6.293.732-9.409,1.285-1.948.345-3.882.746-5.81,1.188-.85.2-1.706.408-2.556.622-.408.111-.822.207-1.23.311q-2.266.788-3.862-2.072c.926-.96-.532-2.432-1.465-1.465Z" transform="translate(-204.47 -136.342)" fill="#f3f00d"/>
    <path id="Caminho_17" data-name="Caminho 17" d="M403.04,333.966c-10-.387-20.793,2.314-27.377,10.362-5.153,6.293-8.089,17.091-2.632,24.178,5.865,7.6,18.728,6.259,26.486,3.019,8.207-3.454,17.187-10.576,19.654-19.488,3.074-11.129-6.908-19.543-17.3-19.667a1.037,1.037,0,0,0,0,2.072c5.927.069,11.744,2.611,14.507,8.131,2.895,5.817.4,11.923-3.454,16.579-6.176,7.412-15.833,13-25.671,12.842-5.906-.09-12.435-2.114-14.265-8.345-1.506-5.05-.359-10.569,2.266-15.046,5.678-9.671,17.236-12.946,27.833-12.531,1.333.048,1.333-2.024,0-2.072Z" transform="translate(-201.351 -151.813)" fill="#f3f00d"/>
    <path id="Caminho_18" data-name="Caminho 18" d="M401.785,353.8a2.694,2.694,0,0,0-3.62,2.763c.207,2.694,3.178,3.454,5.409,3.3,1.927-.166,4.179-.877,3.5-3.288a3.1,3.1,0,0,0-1.686-1.948,3.9,3.9,0,0,0-1.948-.242c-.256,0-2.6.857-1.6-.173L400.21,354a1.7,1.7,0,0,1,.5,1.382,1.043,1.043,0,0,0,1.554.891,1.382,1.382,0,0,1,1.872,1.616,1.043,1.043,0,0,0,1.893.8c.691-1.243,1.527-3.717.49-5.015-.691-.877-2.024-.615-2.853-.1a10,10,0,0,0-1.423,1.223c-.836.739-1.382,1.085-1.071-.332.518-2.577,2.977-4.628,5.223-5.658l-1.52-1.167a21.843,21.843,0,0,1-4.179,8.186l1.768.732a4.615,4.615,0,0,1,2.818-4.5h-1.015l.539.884c-.2,1.306,1.8,1.865,2,.546.263-1.706-.815-3.924-2.812-3.088-2.383.995-3.62,3.723-3.572,6.155,0,.829,1.174,1.471,1.775.739a24.357,24.357,0,0,0,4.7-9.112,1.05,1.05,0,0,0-1.527-1.167,11.585,11.585,0,0,0-5.029,4.38c-.843,1.382-1.9,3.537-1.043,5.126a2.2,2.2,0,0,0,3.005.85,8.083,8.083,0,0,0,1.734-1.382c.256-.228.539-.622.877-.691.3-.207.29-.09-.048.366a3.766,3.766,0,0,1-.6,2.017l1.893.794a3.454,3.454,0,0,0-4.912-3.958l1.561.9a3.765,3.765,0,0,0-.781-2.439,1.05,1.05,0,0,0-1.623-.214,2.71,2.71,0,0,0,.069,4.014c.988.753,1.471,0,2.556-.173,3.682-.477,1.534,1.181.235,1.237a4.9,4.9,0,0,1-1.734-.124q-2.162-.732-.269-1.886c1.237.5,1.768-1.5.553-2Z" transform="translate(-210.023 -156.3)" fill="#f3f00d"/>
    <path id="Caminho_19" data-name="Caminho 19" d="M396.389,361.809c.85,2.763-2.66,3.675-4.324,4.628a9.629,9.629,0,0,0-2.991,2.618c-1.741,2.335-2.39,5.305-2.964,8.1-.263,1.306,1.734,1.858,2,.553a23.49,23.49,0,0,1,1.748-5.962c1.243-2.473,3.026-3.3,5.347-4.573s4-3.24,3.178-5.92c-.387-1.271-2.39-.725-2,.553Z" transform="translate(-206.291 -160.521)" fill="#f3f00d"/>
    <path id="Caminho_20" data-name="Caminho 20" d="M401.055,360.37a2,2,0,0,0-1.727,2.072c0,.822.546,1.347.919,2a15.818,15.818,0,0,1,2,4.359c.332,1.485.656,4.145-.117,5.526-1.43,2.563-4.014,2.072-6.217,2.072-2.072,0-3.675.691-3.606-2.2.041-1.623,1.174-3.268,2.072-4.546l-1.893-.249a36.1,36.1,0,0,1,.629,6.4c0,.96,1.471,1.492,1.927.518a40.021,40.021,0,0,0,2.632-7.281l-2.038-.276.359,5.25a1.043,1.043,0,0,0,1.927.525,2.349,2.349,0,0,0,.518-.933c.069-.325-.566-2.515-.822-1.734l2.031.276.145-4.988-2.072.276a10.321,10.321,0,0,1,.387,4.352c-.131,1.154,1.81,1.416,2.072.276l1.3-6.7-1.893.242a4.58,4.58,0,0,1,.352,2.984c-.152,1.326,1.92,1.313,2.072,0a7.281,7.281,0,0,0-.635-4.027,1.043,1.043,0,0,0-1.893.249l-1.306,6.7,2.038.276a11.3,11.3,0,0,0-.463-4.9,1.036,1.036,0,0,0-2.031.269l-.145,4.988a1.041,1.041,0,0,0,2.038.276l.111-.339a1.05,1.05,0,0,0-.263-1.009c-2.148-2.335-2.584,1.382-3.33,2.411l1.934.525-.359-5.25a1.043,1.043,0,0,0-2.038-.276,37.14,37.14,0,0,1-2.418,6.791l1.934.525a39.058,39.058,0,0,0-.691-6.95c-.18-.953-1.43-.912-1.893-.249-1.382,1.99-3.772,6.335-1.927,8.718,1.61,2.072,6.673,1.271,8.836,1.14,3.413-.193,4.649-2.356,5.022-5.575a13.65,13.65,0,0,0-.256-4.615c-.187-.815-2.072-5.982-2.639-5.879,1.313-.242.753-2.245-.553-2Z" transform="translate(-207.504 -160.47)" fill="#f3f00d"/>
    <path id="Caminho_21" data-name="Caminho 21" d="M397.465,365.833l-5.658,7.468,1.789,1.043,4.145-6-1.893-.8-2.066,7.882a1.043,1.043,0,0,0,1.893.8,36.414,36.414,0,0,1,3.157-4.442l-1.727-1.009a11.281,11.281,0,0,1-2.6,4.787l1.734,1.009a9.257,9.257,0,0,1,.753-2.763c.532-1.2-1.154-2.252-1.789-1.05a24.323,24.323,0,0,1-2,3.136l1.893.249.421-1.969-1.893-.249.3,1.727a1.043,1.043,0,0,0,1.734.456,20.628,20.628,0,0,0,4.145-6.252h-1.782a9.305,9.305,0,0,1,.974,2.763c.249,1.243,1.9.781,2.031-.276a56.168,56.168,0,0,0,.456-6.977h-2.072v4.345c0,1.126,1.844,1.458,2.038.276a7.918,7.918,0,0,1,1.016-2.97H400.65a4.607,4.607,0,0,1,.691,2.349,1.036,1.036,0,0,0,2.072,0l.263-1.382h-2c.2,1.223.96,8.11-1.741,7.3-.456-.111-.587-.083-.394.076l.615-1.313,1.444-3.06-1.934-.525c.124,1.423.256,3.454-.6,4.67a3.579,3.579,0,0,1-3.9.8,6.909,6.909,0,0,1-1.8-1.893l-1.416,1.382c1.147.836,3.005,2.888,4.483,3.005,1.126.09,2.072-.843,2.812-1.589a12.041,12.041,0,0,0,3.378-8.863,1.036,1.036,0,1,0-2.072,0v2.363a1.036,1.036,0,1,0,2.072,0v-5.8a1.036,1.036,0,1,0-2.072,0,24.87,24.87,0,0,1-.359,4.145l2.038.276A47.7,47.7,0,0,1,402,364a1.036,1.036,0,0,0-2.031-.276c-.311,1.319-.691,2.618-1.057,3.91l1.893-.249-.145-.553c-.1-1.319-2.169-1.326-2.072,0a3.793,3.793,0,0,0,.428,1.6,1.047,1.047,0,0,0,1.893-.249c.394-1.3.746-2.6,1.057-3.91L399.924,364a47.725,47.725,0,0,0,.228,4.967c.1,1.064,1.817,1.52,2.031.276a28.551,28.551,0,0,0,.435-4.725h-2.072v5.8h2.072v-2.363h-2.072a9.962,9.962,0,0,1-2.521,7.1,8.486,8.486,0,0,1-.87.857c-.49.47-.94.4-1.333-.214a17.259,17.259,0,0,1-2.853-2.072c-.857-.615-2.031.6-1.423,1.416,1.589,2.114,3.958,4.47,6.908,3.454,3.1-1.1,3.523-5.3,3.288-8.062-.076-.919-1.451-1.541-1.927-.518-.691,1.458-1.382,2.908-2.072,4.373a3.863,3.863,0,0,0-.622,1.824c.228,1.554,2.114,1.3,3.274,1.209,4.5-.339,3.786-6.715,3.268-9.92-.173-1.064-1.72-.9-2,0a6.1,6.1,0,0,0-.339,1.962H403.4a8.214,8.214,0,0,0-.974-3.392,1.043,1.043,0,0,0-1.789,0,10.072,10.072,0,0,0-1.23,3.454l2.072.276v-4.345a1.036,1.036,0,1,0-2.072,0,56.175,56.175,0,0,1-.456,6.977l2.038-.276a11.861,11.861,0,0,0-1.181-3.233,1.043,1.043,0,0,0-1.789,0,18.9,18.9,0,0,1-3.82,5.831l1.734.456-.3-1.727c-.159-.919-1.458-.946-1.893-.249a4.545,4.545,0,0,0-.629,3.565c.173.981,1.416.877,1.893.249a24.246,24.246,0,0,0,2-3.129l-1.789-1.05a11.785,11.785,0,0,0-.967,3.254c-.124.912.96,1.865,1.734,1.009a13.816,13.816,0,0,0,3.136-5.706c.256-.939-1.043-1.831-1.734-1.009a39.573,39.573,0,0,0-3.454,4.836l1.893.8,2.107-7.855a1.043,1.043,0,0,0-1.893-.8l-4.145,6c-.774,1.112,1,2.072,1.789,1.043l5.637-7.461c.8-1.064-.995-2.072-1.789-1.05Z" transform="translate(-207.927 -161.277)" fill="#f3f00d"/>
    <path id="Caminho_22" data-name="Caminho 22" d="M527.07,370.569c8.29-5.071,14.88-12.635,22.2-18.963,7.944-6.86,16.282-13.25,24.869-19.3,16.676-11.744,34.188-22.251,51.686-32.731a1.036,1.036,0,0,0-1.043-1.789c-17.5,10.48-35.017,20.966-51.693,32.731-7.868,5.526-15.55,11.385-22.914,17.6-8.013,6.77-15.149,15.2-24.178,20.662-1.14.691-.1,2.487,1.043,1.789Z" transform="translate(-249.399 -141.081)" fill="#f3f00d"/>
    <path id="Caminho_23" data-name="Caminho 23" d="M697.043,253.847c-8.981.912-18.652,3.2-24.178,11.053-4.774,6.756-4.67,18.541-.187,25.477,5.091,7.882,15.495,8.165,23.577,5.616s16.448-7.019,16.372-16.676c-.042-5.181-1.914-10.576-3.979-15.274-1.782-4.055-4.939-7.6-9.72-7.15-1.319.124-1.333,2.2,0,2.072,6.4-.594,8.462,7.012,9.982,11.813,1.382,4.483,2.66,9.789.49,14.245s-7.4,6.728-11.868,8.359c-4.836,1.755-10.148,2.825-15.2,1.382-10-2.8-12.766-15.474-9.886-24.469,3.316-10.362,15.06-13.409,24.627-14.376,1.313-.131,1.326-2.2,0-2.072Z" transform="translate(-293.858 -127.533)" fill="#f3f00d"/>
    <path id="Caminho_24" data-name="Caminho 24" d="M717.043,369.847c-8.981.912-18.652,3.2-24.178,11.053-4.774,6.756-4.67,18.541-.187,25.477,5.091,7.882,15.495,8.165,23.577,5.616s16.448-7.019,16.372-16.676c-.042-5.181-1.914-10.576-3.979-15.274-1.782-4.055-4.939-7.6-9.72-7.15-1.319.124-1.333,2.2,0,2.072,6.4-.594,8.463,7.012,9.982,11.813,1.382,4.483,2.66,9.789.49,14.245s-7.4,6.728-11.868,8.359c-4.836,1.755-10.148,2.825-15.2,1.382-10-2.8-12.766-15.474-9.885-24.469,3.316-10.362,15.06-13.409,24.627-14.376,1.313-.131,1.326-2.2,0-2.072Z" transform="translate(-300.042 -163.398)" fill="#f3f00d"/>
    <path id="Caminho_25" data-name="Caminho 25" d="M689.738,267.245l6.542,7.461a1.043,1.043,0,0,0,1.727-.463c1.382-3.634,1.119-7.4,1.444-11.219a36.937,36.937,0,0,1,2.936-11.447,38.637,38.637,0,0,1,15.46-17.719c1.14-.691.1-2.487-1.043-1.789a40.565,40.565,0,0,0-15.633,17.174,39.7,39.7,0,0,0-3.454,10.963c-.691,4.483-.062,9.181-1.72,13.485l1.734-.463-6.508-7.447c-.884-1-2.342.47-1.465,1.465Z" transform="translate(-300.1 -120.752)" fill="#f3f00d"/>
    <path id="Caminho_26" data-name="Caminho 26" d="M532.151,413.5q53.448-1.63,106.924-.691a1.037,1.037,0,0,0,0-2.072q-53.462-.953-106.924.691C530.818,411.466,530.811,413.538,532.151,413.5Z" transform="translate(-251.143 -175.934)" fill="#f3f00d"/>
    <path id="Caminho_27" data-name="Caminho 27" d="M697.864,384.382a214.1,214.1,0,0,1,35,17.588c1.133.691,2.176-1.085,1.043-1.789a216.379,216.379,0,0,0-35.466-17.8c-1.237-.49-1.775,1.513-.546,2Z" transform="translate(-302.485 -167.253)" fill="#f3f00d"/>
    <path id="Caminho_28" data-name="Caminho 28" d="M721.086,371.567a84.624,84.624,0,0,0-20.317,51.486c-.055,1.333,2.017,1.333,2.072,0a82.3,82.3,0,0,1,19.709-50.022C723.414,372.023,721.957,370.551,721.086,371.567Z" transform="translate(-303.588 -163.826)" fill="#f3f00d"/>
    <path id="Caminho_29" data-name="Caminho 29" d="M329.77,402.511l77.212-1.009,8.877-.117c1.6,0,3.192-.055,4.787-.062a3.807,3.807,0,0,1,3.717,4.145c-.1,4.836-3.143,4.663-7.122,4.836l-9.6.435-39.072,1.72c-7,.311-14,.691-21,.933-6.314.193-18.32-1.865-15.516-11.053.387-1.278-1.61-1.824-2-.553-1.382,4.518,1.064,9.1,5,11.474,5.589,3.357,12.953,2.217,19.122,1.941l47.97-2.176,11.647-.518c2.984-.138,7.136.47,9.879-.919,3.219-1.623,3.786-8.069,1.755-10.784-1.043-1.382-2.508-1.506-4.145-1.568-4.3-.166-8.67.117-12.973.173l-23.916.318-54.65.691a1.037,1.037,0,0,0,0,2.072Z" transform="translate(-188.561 -172.471)" fill="#f3f00d"/>
    <g id="Michel" transform="translate(443.461 155.171)">
      <path id="Caminho_30" data-name="Caminho 30" d="M777.466,764.951c-1.741,1.091-3.73,1.706-5.526,2.667s-3.544,2.4-4.055,4.394a2.763,2.763,0,0,0,.09,1.879,3.647,3.647,0,0,0,1.934,1.534,29.353,29.353,0,0,0,23.218.262,30.591,30.591,0,0,1,4.007-1.589,26.03,26.03,0,0,1,5.133-.525,39.464,39.464,0,0,0,5.4-.691,4.746,4.746,0,0,0,2.445-1.016,4.539,4.539,0,0,0,1.1-2.639,21.726,21.726,0,0,0-3.454-15.391,5.2,5.2,0,0,0-1.506-1.6,5.81,5.81,0,0,0-2.4-.642c-3.454-.421-7.074-1.2-10.562-1.278-2.5-.055-3.758,1.133-5.526,2.853C784.105,756.827,781.971,762.139,777.466,764.951Z" transform="translate(-767.762 -436.208)" fill="#252521"/>
      <path id="Caminho_31" data-name="Caminho 31" d="M855.318,764.292c0,3.385.408,6.97,2.459,9.671a12.773,12.773,0,0,0,3.357,2.936c4.338,2.763,10.086,3.779,14.659,1.437a4.352,4.352,0,0,0,1.824-1.534c.691-1.2.325-2.7-.062-4.027l-6.618-22.935c-4.276.656-10.562,1.119-14.362,3.288C853.819,754.7,855.318,761.266,855.318,764.292Z" transform="translate(-794.707 -436.061)" fill="#252521"/>
      <path id="Caminho_32" data-name="Caminho 32" d="M774.676,563.54c-.4,1.264-1.851,1.851-2.646,2.915a5.534,5.534,0,0,0-.5,4.5,11.91,11.91,0,0,0,3.033,5.976,7.164,7.164,0,0,0,6.217,2.114A5.181,5.181,0,0,0,785,574.4a8.8,8.8,0,0,0-.649-2.991l-4.711-13.623a.515.515,0,0,0-.85-.373c-1.112.525-3.344,1.078-3.993,2.231S775.145,562.29,774.676,563.54Z" transform="translate(-768.853 -376.531)" fill="#fbb3b2"/>
      <path id="Caminho_33" data-name="Caminho 33" d="M773,560.29c1.72-.269,3.226-1.278,4.836-1.941s3.627-.919,4.981.187c.387.318.76.753,1.264.746a49.459,49.459,0,0,0-3.095-9.837.767.767,0,0,0-.269-.38.781.781,0,0,0-.587,0l-4.649,1.216c-1.72.449-1.92.311-1.789,2C773.725,553.037,774.112,560.29,773,560.29Z" transform="translate(-769.381 -373.965)" fill="#41413d"/>
      <path id="Caminho_34" data-name="Caminho 34" d="M771.016,422.818a6.548,6.548,0,0,0-.691,3.641,123.764,123.764,0,0,0,.967,18.313c.214,1.451.484,2.9.622,4.366a50.36,50.36,0,0,1,.1,6.128l-.691,26.6c-.083,3.254-.249,6.749-2.259,9.305a4.448,4.448,0,0,0-.808,2.95c.525,6.673,1.63,13.291,2.729,19.888a12.29,12.29,0,0,1,11.15.532,122.728,122.728,0,0,0,5.727-33.85c.159-5.658-.083-11.35.788-16.939,1.458-9.409.864-19.06-.207-28.524-.339-3-1.057-6.086-2.977-8.407a12.746,12.746,0,0,0-6.908-3.979C776,422.168,773.71,422.859,771.016,422.818Z" transform="translate(-767.909 -334.865)" fill="#22221e"/>
      <path id="Caminho_35" data-name="Caminho 35" d="M771.016,422.818a6.548,6.548,0,0,0-.691,3.641,123.764,123.764,0,0,0,.967,18.313c.214,1.451.484,2.9.622,4.366a50.36,50.36,0,0,1,.1,6.128l-.691,26.6c-.083,3.254-.249,6.749-2.259,9.305a4.448,4.448,0,0,0-.808,2.95c.525,6.673,1.63,13.291,2.729,19.888a12.29,12.29,0,0,1,11.15.532,122.728,122.728,0,0,0,5.727-33.85c.159-5.658-.083-11.35.788-16.939,1.458-9.409.864-19.06-.207-28.524-.339-3-1.057-6.086-2.977-8.407a12.746,12.746,0,0,0-6.908-3.979C776,422.168,773.71,422.859,771.016,422.818Z" transform="translate(-767.909 -334.865)" opacity="0.1"/>
      <path id="Caminho_36" data-name="Caminho 36" d="M783.469,530.426a122,122,0,0,0,7.267,70.629,19.157,19.157,0,0,1,1.686,5.223c.38,3.385-1.181,6.639-2.072,9.913-2.072,7.447-.877,15.377.449,23q.829,4.767,1.706,9.526c.573,3.095,1.126,6.459-.311,9.264,1.237,5.153,1.969,10.259,3.205,15.412a2.929,2.929,0,0,1,.117,1.264,3.723,3.723,0,0,1-1.264,1.693,7.558,7.558,0,0,0-1.927,7.233c3.157-2.266,7.558-1.471,11.164,0s7.157,3.454,11.053,3.454c-.566-4.573-1.112-9.374.573-13.664.981-2.487,2.708-4.836,2.66-7.5-.048-2.383-1.506-4.511-1.858-6.867a17.382,17.382,0,0,1,.166-4.394c.926-8.456-.124-16.994-1.174-25.436a15.2,15.2,0,0,0-1.161-4.836c-.49-.995-1.223-1.948-1.209-3.06,0-1.292,1.043-2.342,1.43-3.571.691-2.266-.58-5.347,1.333-6.749,5.043-3.7,3.109-12.545,3-18.8q-.131-8.089-.691-16.165a68.855,68.855,0,0,1,3.813,27.867c-.221,3.095-.629,6.349.58,9.208.926,2.2,2.763,4.007,3.261,6.335a26.519,26.519,0,0,1,.159,4.387,4.52,4.52,0,0,0,1.831,3.8c.1,6.659.691,13.782.794,20.441a50.424,50.424,0,0,0,.829,10.155,12.94,12.94,0,0,1,.511,3.274,13.684,13.684,0,0,1-1.091,4.027A23.094,23.094,0,0,0,831.75,686.8c1.63-2.895,5.029-4.428,8.345-4.67s6.59.594,9.8,1.437a19.2,19.2,0,0,1,2.294-11.675,9.554,9.554,0,0,0,1.209-2.6c.373-1.755-.5-3.5-.967-5.236-.767-2.763-.5-5.741-.318-8.628a136.533,136.533,0,0,0-1.278-28.959,24.532,24.532,0,0,0-1.319-5.526c-.249-.636-.553-1.243-.76-1.886a14.867,14.867,0,0,1-.553-3.537l-.794-11.053c-.56-7.744,1.983-15.391,3.758-22.949.794-3.385,1.658-6.763,2.19-10.2.725-4.684.843-9.471,1.907-14.093.953-4.145,2.673-8.186,3.033-12.435.553-6.583-2.183-12.946-4.836-18.984-1.105-2.487-5.285-2.238-7.972-2.68-19.059-3.129-39.134-3.15-57.109,3.9A14.21,14.21,0,0,0,783.469,530.426Z" transform="translate(-771.92 -365.343)" fill="#191913"/>
      <path id="Caminho_37" data-name="Caminho 37" d="M803.112,354.549l2.114,8.221a21.966,21.966,0,0,1,.946,5.81,4.29,4.29,0,0,1-.463,2.072,4.94,4.94,0,0,1-1.312,1.34c-1.444,1.1-2.445,3.661-4.1,4.421.85,1.478,2.024.518,3.558,1.257,2.7,1.313,5.174,3.2,8.1,3.848,2.763.608,5.665.035,8.407-.691a29.031,29.031,0,0,0,10.887-5.064c3.129-2.549,4.912-4.8,4.9-8.829-3.454.408-6.528-3.081-8.055-6.217a16.889,16.889,0,0,1-1.161-3.723l-1.851-8.145c-2.017.442-3.661,1.886-5.589,2.639a20.291,20.291,0,0,1-6.349.919,68.389,68.389,0,0,0-11.3,1.465c-.511.1-1.154.428-1.029.926" transform="translate(-777.822 -312.079)" fill="#fbb3b2"/>
      <path id="Caminho_38" data-name="Caminho 38" d="M803.112,354.549l2.114,8.221a21.966,21.966,0,0,1,.946,5.81,4.29,4.29,0,0,1-.463,2.072,4.94,4.94,0,0,1-1.312,1.34c-1.444,1.1-2.445,3.661-4.1,4.421.85,1.478,2.024.518,3.558,1.257,2.7,1.313,5.174,3.2,8.1,3.848,2.763.608,5.665.035,8.407-.691a29.031,29.031,0,0,0,10.887-5.064c3.129-2.549,4.912-4.8,4.9-8.829-3.454.408-6.528-3.081-8.055-6.217a16.889,16.889,0,0,1-1.161-3.723l-1.851-8.145c-2.017.442-3.661,1.886-5.589,2.639a20.291,20.291,0,0,1-6.349.919,68.389,68.389,0,0,0-11.3,1.465c-.511.1-1.154.428-1.029.926" transform="translate(-777.822 -312.079)" opacity="0.1"/>
      <circle id="Elipse_3" data-name="Elipse 3" cx="18.293" cy="18.293" r="18.293" transform="translate(16.074 10.417)" fill="#fbb3b2"/>
      <path id="Caminho_39" data-name="Caminho 39" d="M815.292,375.017a16.58,16.58,0,0,1,4.145-5.526c2.577-2.259,6.1-4.09,6.708-7.461l5.582,6.5a3,3,0,0,1,.691,1.064,2.68,2.68,0,0,1-.525,2.148c-1.382,2.2-3.558,3.779-5.616,5.375a170.6,170.6,0,0,0-13.533,11.937,1.382,1.382,0,0,1-.725.442,1.306,1.306,0,0,1-.753-.214,31.424,31.424,0,0,1-9.651-7.848c-.2-.242-.449-.518-.774-.5a1,1,0,0,0-.518.269c-1.858,1.52-3.889,3.337-6.273,3.1,3.088-2.217,4.836-5.92,5.485-9.671a18.271,18.271,0,0,1,.787-3.779,3.945,3.945,0,0,1,2.694-2.556c-1.506,2.3-.477,5.561,1.547,7.419a15.253,15.253,0,0,0,6.853,3.323C813.766,379.487,814.457,376.827,815.292,375.017Z" transform="translate(-775.89 -316.154)" fill="#41413d"/>
      <path id="Caminho_40" data-name="Caminho 40" d="M786.5,531.34c2.6.642,5.071,1.734,7.6,2.542a36.316,36.316,0,0,0,14.265,1.5,7.7,7.7,0,0,0,4.145-1.32c.325-.262.622-.573.967-.815a6.762,6.762,0,0,1,1.858-.767c6.335-1.983,11.64-6.259,16.787-10.445.166-.138.352-.311.338-.532a.691.691,0,0,0-.207-.394L829.546,518c-7.1,1.209-14.376.753-21.581.573a31.333,31.333,0,0,0-4.435.117c-1.423.166-2.825.525-4.228.829-5.326,1.161-10.77,1.6-16.165,2.363a2.494,2.494,0,0,0-1.071.332,2.411,2.411,0,0,0-.573.636l-1.893,2.66a8.367,8.367,0,0,0-1.589,3.047c-.442,2.072.484,2.763,2.245,2.494A16.4,16.4,0,0,1,786.5,531.34Z" transform="translate(-770.897 -364.378)" fill="#41413d"/>
      <path id="Caminho_41" data-name="Caminho 41" d="M805.481,388.827a33.65,33.65,0,0,0-7.122-5.561,10.092,10.092,0,0,0-3.454-1.382,4.311,4.311,0,0,0-3.537.87c-.615.546-1,1.306-1.6,1.879a7.936,7.936,0,0,1-2.528,1.43,44.847,44.847,0,0,0-8.884,5.064,20.377,20.377,0,0,0-4.027,3.717c-3.129,4.007-3.6,9.457-3.516,14.542.062,3.537,3.454,6.162,5.789,8.808a64.9,64.9,0,0,1,5.927,8.29c1.257,1.99,2.57,4.145,2.411,6.514-.131,1.941-1.264,3.765-1.085,5.7.062.691.283,1.326.345,2,.124,1.382-.421,2.763-.56,4.145-.187,1.955.449,3.9.484,5.865a18.654,18.654,0,0,1-.511,4c-1.326,6.314-2.991,12.663-2.653,19.108l-3.827.691a3.233,3.233,0,0,1-.739,5.16c5.976,2,12.435.988,18.769.981,5.243,0,10.466.691,15.7.594s10.638-1.043,14.956-4.007c1.174-.8,2.252-1.741,3.489-2.439a17.209,17.209,0,0,1,5.285-1.727,52.434,52.434,0,0,1,10.362-.926c1.7,0,3.551.069,4.9-.953,1.492-1.133,1.872-3.185,2.072-5.043.2-1.962.325-3.931.359-5.9a25.442,25.442,0,0,0-.242-4.587,30.052,30.052,0,0,0-.808-3.288l-2.6-9.174c-1.078-3.786.421-7.937.739-11.861a2.974,2.974,0,0,0-.622-2.6c-.256-.214-.608-.359-.691-.691a1.181,1.181,0,0,1,.166-.926,51.138,51.138,0,0,1,5.347-7.7,157.264,157.264,0,0,0,8.842-13.588,43.722,43.722,0,0,0-11.7-26.168,12.662,12.662,0,0,0-4.9-3.613,14.506,14.506,0,0,0-3.9-.629c-5.416-.366-11.053-.691-15.771-3.413a3,3,0,0,0-1.126-.477c-1.043-.117-1.8.912-2.48,1.727-1.741,2.072-4.3,3.261-6.556,4.787C811.8,380.9,808.514,384.827,805.481,388.827Z" transform="translate(-768.704 -319.09)" fill="#252521"/>
      <path id="Caminho_42" data-name="Caminho 42" d="M892.052,421.755c1.078,3.413.974,7.06,1.326,10.618a41.318,41.318,0,0,0,1.126,6.362,10.155,10.155,0,0,0,1.313,3.24,14.253,14.253,0,0,1,1.907,2.68,6.472,6.472,0,0,1,.283,2.155l.083,4.767A17.14,17.14,0,0,1,896.963,459l-2.977,9.057c-1.61,4.9-3.261,9.885-6.162,14.155a4.082,4.082,0,0,1-1.775,1.665,8.627,8.627,0,0,1-1.789.276,4.6,4.6,0,0,0-3.793,4.469,10.493,10.493,0,0,0-2.549-2.6l-6.058-4.836a25.9,25.9,0,0,0-6.749-4.373,18.3,18.3,0,0,0,12.725-15.377,6.908,6.908,0,0,1,.691-3.026c.5-.815,1.437-1.437,1.506-2.4.083-1.209-1.285-2.121-1.285-3.33,0-.8.594-1.465.857-2.217a5.568,5.568,0,0,0,0-2.839l-.836-4.642a3.544,3.544,0,0,0-.414-1.326,8.577,8.577,0,0,0-1.036-1.091c-1.437-1.61-.8-4.145,0-6.127a58.568,58.568,0,0,1,7.06-12.386,42.368,42.368,0,0,0,2.812-4.021c.732-1.271.9-3.033,1.672-4.145C889.855,416.491,891.2,419.068,892.052,421.755Z" transform="translate(-797.861 -332.186)" fill="#252521"/>
      <path id="Caminho_43" data-name="Caminho 43" d="M863.047,505.1a3.327,3.327,0,0,0-.788.829,6.984,6.984,0,0,1-3.129,2.231c.691.5,1.319.988,1.969,1.492A86.274,86.274,0,0,1,874.224,522.2c.435-1.554,3.04-1.444,3.675-2.929a2.867,2.867,0,0,0,.138-1.326,40.46,40.46,0,0,0-.995-6.908,7.819,7.819,0,0,0-1.382-3.233,8.29,8.29,0,0,0-3.91-2.211C869.575,504.834,865.257,503.763,863.047,505.1Z" transform="translate(-796.012 -360.193)" fill="#41413d"/>
      <path id="Caminho_44" data-name="Caminho 44" d="M847.3,512.251c-2.072,1.534-3.889,3.454-6.217,4.5-1.644.746-3.516,1.071-4.953,2.183a4.922,4.922,0,0,0,4.7,2.542,11.164,11.164,0,0,0,5.257-1.927c1.237-.76,2.687-1.644,4.034-1.112.207,1.05-.691,2.038-.691,3.1a3.127,3.127,0,0,0,1.755,2.4c4.145,2.673,9.478,2.452,14.417,2.141a1.3,1.3,0,0,0,.794-.235,1.251,1.251,0,0,0,.3-.912c.062-1.092.09-2.176.1-3.268a4.684,4.684,0,0,0-2-4.615,56.38,56.38,0,0,0-8.635-6.114C853.11,509.177,850.029,510.22,847.3,512.251Z" transform="translate(-788.901 -361.918)" fill="#fbb3b2"/>
      <path id="Caminho_45" data-name="Caminho 45" d="M824.565,326.089c-3.067.366-5.3,2.763-4.988,5.368s3.046,4.4,6.114,4.027,5.3-2.763,4.988-5.361S827.632,325.723,824.565,326.089Zm1.043,8.677c-2.6.311-4.912-1.216-5.181-3.413s1.63-4.228,4.221-4.539,4.912,1.216,5.181,3.413-1.63,4.228-4.221,4.539Z" transform="translate(-783.774 -305.027)" fill="#191913"/>
      <path id="Caminho_46" data-name="Caminho 46" d="M802.925,328.689c-3.067.366-5.3,2.763-4.988,5.361s3.046,4.4,6.114,4.034,5.3-2.763,4.988-5.368S805.992,328.323,802.925,328.689Zm1.043,8.67c-2.6.311-4.912-1.216-5.174-3.406s1.623-4.228,4.221-4.546,4.912,1.216,5.174,3.413-1.63,4.228-4.221,4.539Z" transform="translate(-777.083 -305.831)" fill="#191913"/>
      <path id="Caminho_47" data-name="Caminho 47" d="M663.156,259.64l6.666,1.423-.656,1.755-6.286-1.844Z" transform="translate(-648.416 -235.449)" fill="#191913"/>
      <path id="Caminho_48" data-name="Caminho 48" d="M714.318,253.18l-6.148,2.964,1.057,1.547,5.672-3.281Z" transform="translate(-662.419 -233.451)" fill="#191913"/>
      <path id="Caminho_49" data-name="Caminho 49" d="M687.31,260.81l4.677-.56-.242,1.161-4.014.269Z" transform="translate(-655.969 -235.637)" fill="#191913"/>
      <path id="Caminho_50" data-name="Caminho 50" d="M794.917,319.225a7.42,7.42,0,0,0,.691-3.019,6.452,6.452,0,0,1,.318-1.838,5.142,5.142,0,0,1,1.506-1.927,13.932,13.932,0,0,1,8.29-2.895,19.163,19.163,0,0,1,9.588,2.072,7.459,7.459,0,0,1,2.383,1.768c.967,1.181,1.174,2.708,2.148,3.875a5.644,5.644,0,0,0,5.292,1.658c.339-1.2-.1-2.473.069-3.7a17.917,17.917,0,0,1,1.1-3.067c1.071-3.157-.49-6.818-3.71-8.7a14.317,14.317,0,0,1-3.3-2.072,15.616,15.616,0,0,1-1.623-2.832c-1.541-2.466-5.526-3.62-8.559-2.48-.953.359-1.8.9-2.763,1.292a22.778,22.778,0,0,1-5.817,1.119,17.816,17.816,0,0,0-5.637,1.478,6.313,6.313,0,0,0-3.53,3.813c-.187.746-.145,1.52-.332,2.259-.953,3.751-7.108,5.575-7.454,9.4a5.487,5.487,0,0,0,1.568,3.834c.649.767,2.2,2.818,3.3,3.116s1.934-.746,2.984-1.105C793.086,320.752,794.088,320.642,794.917,319.225Z" transform="translate(-772.647 -295.621)" fill="#dadacb"/>
    </g>
    <path id="Caminho_51" data-name="Caminho 51" d="M912.81,682c0,34.706,21.774,62.795,48.681,62.795" transform="translate(-369.149 -259.914)" fill="#191913"/>
    <path id="Caminho_52" data-name="Caminho 52" d="M983.28,744.489c0-35.1,24.3-63.5,54.332-63.5" transform="translate(-390.937 -259.602)" fill="#f3f00d"/>
    <path id="Caminho_53" data-name="Caminho 53" d="M938.35,686.56c0,32.972,13.885,59.652,31.038,59.652" transform="translate(-377.045 -261.324)" fill="#f3f00d"/>
    <path id="Caminho_54" data-name="Caminho 54" d="M983.28,736.593c0-44.847,28.088-81.143,62.795-81.143" transform="translate(-390.937 -251.705)" fill="#191913"/>
    <ellipse id="Elipse_4" data-name="Elipse 4" cx="12.103" cy="2.045" rx="12.103" ry="2.045" transform="translate(578.133 492.79)" fill="#f3f00d" opacity="0.1"/>
    <path id="Caminho_55" data-name="Caminho 55" d="M968.46,771.88s6.908-.214,8.98-1.693,10.618-3.254,11.136-.877,10.362,11.82,2.577,11.882-18.113-1.216-20.186-2.48S968.46,771.88,968.46,771.88Z" transform="translate(-386.355 -286.551)" fill="#a8a8a8"/>
    <path id="Caminho_56" data-name="Caminho 56" d="M991.3,782.03c-7.792.062-18.106-1.216-20.185-2.48-1.582-.96-2.211-4.421-2.425-6.01h-.228s.435,5.568,2.515,6.832,12.393,2.542,20.185,2.48c2.252,0,3.026-.822,2.984-2C993.833,781.567,993.011,782.016,991.3,782.03Z" transform="translate(-386.355 -288.218)" opacity="0.2"/>
    <path id="Caminho_57" data-name="Caminho 57" d="M148.31,711.36c0,27.632,17.319,49.959,38.727,49.959" transform="translate(-132.774 -268.992)" fill="#191913"/>
    <path id="Caminho_58" data-name="Caminho 58" d="M204.37,761.069c0-27.923,19.343-50.519,43.224-50.519" transform="translate(-150.107 -268.742)" fill="#f3f00d"/>
    <path id="Caminho_59" data-name="Caminho 59" d="M168.62,715c0,26.251,11.053,47.459,24.7,47.459" transform="translate(-139.053 -270.118)" fill="#f3f00d"/>
    <path id="Caminho_60" data-name="Caminho 60" d="M204.37,754.786c0-35.68,22.348-64.556,49.959-64.556" transform="translate(-150.107 -262.459)" fill="#191913"/>
    <ellipse id="Elipse_5" data-name="Elipse 5" cx="9.63" cy="1.63" rx="9.63" ry="1.63" transform="translate(42.955 498.614)" fill="#f3f00d" opacity="0.1"/>
    <path id="Caminho_61" data-name="Caminho 61" d="M192.58,782.843s5.492-.173,7.143-1.382,8.456-2.59,8.863-.691,8.255,9.4,2.072,9.45-14.41-.967-16.061-1.969S192.58,782.843,192.58,782.843Z" transform="translate(-146.461 -290.163)" fill="#a8a8a8"/>
    <path id="Caminho_62" data-name="Caminho 62" d="M210.748,790.976c-6.217.048-14.41-.967-16.061-1.976-1.257-.76-1.755-3.516-1.927-4.78h-.18s.345,4.428,2,5.437,9.865,2.017,16.061,1.969c1.789,0,2.411-.649,2.376-1.6C212.766,790.582,212.082,790.935,210.748,790.976Z" transform="translate(-146.461 -291.52)" opacity="0.2"/>
  </g>
</svg>
