<svg xmlns="http://www.w3.org/2000/svg" xmlns:xlink="http://www.w3.org/1999/xlink" width="612.428" height="453.187" viewBox="0 0 612.428 453.187">
  <defs>
    <linearGradient id="linear-gradient" x1="0.5" y1="1" x2="0.5" gradientUnits="objectBoundingBox">
      <stop offset="0" stop-color="gray" stop-opacity="0.251"/>
      <stop offset="0.54" stop-color="gray" stop-opacity="0.122"/>
      <stop offset="1" stop-color="gray" stop-opacity="0.102"/>
    </linearGradient>
  </defs>
  <g id="undraw_forgot_password_gi2d" transform="translate(0.007 0.02)">
    <g id="Grupo_272" data-name="Grupo 272" transform="translate(467.178 266.447)" opacity="0.1">
      <path id="Caminho_83" data-name="Caminho 83" d="M911.553,619.164s-43.72-5.677-11.114,65.083c0,0,29.714-12.733,30.9-41.454a22.854,22.854,0,0,0-19.164-23.54Z" transform="translate(-888.357 -564.558)" fill="#f3f00d"/>
      <path id="Caminho_84" data-name="Caminho 84" d="M921.783,619.06s9.9,39.455-11.723,65.195" transform="translate(-897.945 -564.56)" fill="none" stroke="#535461" stroke-miterlimit="10" stroke-width="1"/>
      <path id="Caminho_85" data-name="Caminho 85" d="M909,663.81s15.742-38.8,45.138-53.187a63.443,63.443,0,0,0,28.81-27.967,106.7,106.7,0,0,0,7.218-18.125" transform="translate(-897.477 -540.47)" fill="none" stroke="#535461" stroke-miterlimit="10" stroke-width="2"/>
      <path id="Caminho_86" data-name="Caminho 86" d="M1072.514,536.317c-3.065,3.852-18.924,9.49-18.924,9.49s1.909-16.747,4.974-20.57a8.931,8.931,0,1,1,13.955,11.1Z" transform="translate(-961.353 -521.428)" fill="#f3f00d"/>
      <path id="Caminho_87" data-name="Caminho 87" d="M1061.094,588.849c-4.667,1.569-21.034-2.333-21.034-2.333s10.69-13,15.357-14.564a8.932,8.932,0,1,1,5.677,16.9Z" transform="translate(-955.376 -543.454)" fill="#f3f00d"/>
      <path id="Caminho_88" data-name="Caminho 88" d="M1011.441,653.454c-4.817-1-16.981-12.633-16.981-12.633S1010.247,635,1015.07,636a8.932,8.932,0,0,1-3.628,17.45Z" transform="translate(-935.231 -571.992)" fill="#f3f00d"/>
      <path id="Caminho_89" data-name="Caminho 89" d="M958.944,693.136c-4.918-.173-18.874-9.579-18.874-9.579s14.581-8.418,19.5-8.239a8.932,8.932,0,0,1-.625,17.813Z" transform="translate(-911.203 -589.412)" fill="#f3f00d"/>
      <path id="Caminho_90" data-name="Caminho 90" d="M1012.628,570.572c.631,4.885,11.287,17.9,11.287,17.9s7.017-15.3,6.392-20.18a8.931,8.931,0,1,0-17.679,2.277Z" transform="translate(-943.183 -538.435)" fill="#f3f00d"/>
      <path id="Caminho_91" data-name="Caminho 91" d="M952.847,616.009c2.06,4.466,16.127,13.7,16.127,13.7s2.121-16.7.061-21.162a8.932,8.932,0,1,0-16.188,7.463Z" transform="translate(-916.371 -557.389)" fill="#f3f00d"/>
      <path id="Caminho_92" data-name="Caminho 92" d="M902.242,671.032c1.273,4.756,13.582,16.233,13.582,16.233s4.912-16.094,3.634-20.85a8.932,8.932,0,1,0-17.216,4.617Z" transform="translate(-894.28 -582.302)" fill="#f3f00d"/>
      <path id="Caminho_93" data-name="Caminho 93" d="M1072.514,536.317c-3.065,3.852-18.924,9.49-18.924,9.49s1.909-16.747,4.974-20.57a8.931,8.931,0,1,1,13.955,11.1Z" transform="translate(-961.353 -521.428)" opacity="0.25"/>
      <path id="Caminho_94" data-name="Caminho 94" d="M1061.094,588.849c-4.667,1.569-21.034-2.333-21.034-2.333s10.69-13,15.357-14.564a8.932,8.932,0,1,1,5.677,16.9Z" transform="translate(-955.376 -543.454)" opacity="0.25"/>
      <path id="Caminho_95" data-name="Caminho 95" d="M1011.441,653.454c-4.817-1-16.981-12.633-16.981-12.633S1010.247,635,1015.07,636a8.932,8.932,0,0,1-3.628,17.45Z" transform="translate(-935.231 -571.992)" opacity="0.25"/>
      <path id="Caminho_96" data-name="Caminho 96" d="M958.944,693.136c-4.918-.173-18.874-9.579-18.874-9.579s14.581-8.418,19.5-8.239a8.932,8.932,0,0,1-.625,17.813Z" transform="translate(-911.203 -589.412)" opacity="0.25"/>
      <path id="Caminho_97" data-name="Caminho 97" d="M1012.628,570.572c.631,4.885,11.287,17.9,11.287,17.9s7.017-15.3,6.392-20.18a8.931,8.931,0,1,0-17.679,2.277Z" transform="translate(-943.183 -538.435)" opacity="0.25"/>
      <path id="Caminho_98" data-name="Caminho 98" d="M952.847,616.009c2.06,4.466,16.127,13.7,16.127,13.7s2.121-16.7.061-21.162a8.932,8.932,0,1,0-16.188,7.463Z" transform="translate(-916.371 -557.389)" opacity="0.25"/>
      <path id="Caminho_99" data-name="Caminho 99" d="M902.242,671.032c1.273,4.756,13.582,16.233,13.582,16.233s4.912-16.094,3.634-20.85a8.932,8.932,0,1,0-17.216,4.617Z" transform="translate(-894.28 -582.302)" opacity="0.25"/>
      <path id="Caminho_100" data-name="Caminho 100" d="M946.56,695.426s15.742-38.8,45.138-53.187a63.442,63.442,0,0,0,28.793-27.973,106.689,106.689,0,0,0,7.218-18.125" transform="translate(-914.07 -554.434)" fill="none" stroke="#535461" stroke-miterlimit="10" stroke-width="2"/>
      <path id="Caminho_101" data-name="Caminho 101" d="M1110.024,568.59c-3.065,3.852-18.924,9.49-18.924,9.49s1.909-16.747,4.974-20.571a8.932,8.932,0,0,1,13.956,11.1Z" transform="translate(-977.924 -536.061)" fill="#f3f00d"/>
      <path id="Caminho_102" data-name="Caminho 102" d="M1098.624,620.74c-4.667,1.569-21.034-2.333-21.034-2.333s10.69-13,15.357-14.564a8.932,8.932,0,0,1,5.677,16.9Z" transform="translate(-971.956 -557.704)" fill="#f3f00d"/>
      <path id="Caminho_103" data-name="Caminho 103" d="M1048.971,685.094c-4.818-1-16.981-12.633-16.981-12.633s15.787-5.822,20.61-4.823a8.932,8.932,0,0,1-3.628,17.45Z" transform="translate(-951.811 -585.97)" fill="#f3f00d"/>
      <path id="Caminho_104" data-name="Caminho 104" d="M996.464,724.731c-4.918-.173-18.874-9.579-18.874-9.579s14.581-8.407,19.5-8.234a8.932,8.932,0,0,1-.625,17.813Z" transform="translate(-927.778 -603.372)" fill="#f3f00d"/>
      <path id="Caminho_105" data-name="Caminho 105" d="M1050.148,602.213c.631,4.884,11.287,17.9,11.287,17.9s7.017-15.3,6.392-20.18a8.932,8.932,0,1,0-17.679,2.278Z" transform="translate(-959.759 -552.413)" fill="#f3f00d"/>
      <path id="Caminho_106" data-name="Caminho 106" d="M990.756,648.395c2.06,4.466,16.127,13.7,16.127,13.7s2.121-16.7.061-21.162a8.932,8.932,0,0,0-16.188,7.463Z" transform="translate(-933.33 -572.157)" fill="#f3f00d"/>
      <path id="Caminho_107" data-name="Caminho 107" d="M940.014,703.556c1.273,4.756,13.582,16.233,13.582,16.233s4.912-16.094,3.634-20.85a8.932,8.932,0,0,0-17.216,4.616Z" transform="translate(-911.102 -597.175)" fill="#f3f00d"/>
    </g>
    <path id="Caminho_108" data-name="Caminho 108" d="M63.3,474.07c9.691,41.42,30.205,77.225,62.627,94.58,67.377,36.067,219.331,17.467,332.74-3.908a259.691,259.691,0,0,0,147.667-84.4Z" transform="translate(-56.688 -234.06)" fill="#f3f00d" opacity="0.1"/>
    <path id="Caminho_109" data-name="Caminho 109" d="M670.4,89.145H608.174a5.378,5.378,0,1,1,0-10.757h10.757a5.378,5.378,0,0,1,0-10.757H611.25a5.378,5.378,0,1,1,0-10.757h32.477a85.94,85.94,0,0,0-25.332-6.983C529.838,38.515,498.221,46.039,487.067,53.8A124.017,124.017,0,0,1,441.55,73.75C386.905,85.009,284.723,98.574,192.108,69.4c-46.031-14.514-80.245,10-100.748,50.955H681.2c-.77-11.9-3.076-22.887-7.307-32.511A5.348,5.348,0,0,1,670.4,89.145Z" transform="translate(-69.084 -44.1)" fill="#f3f00d" opacity="0.1"/>
    <path id="Caminho_110" data-name="Caminho 110" d="M52.781,319.2A274.12,274.12,0,0,0,55.2,391.468L601.52,411.446a256.781,256.781,0,0,0,37.959-57.888Zm216.077,51.552H258.1a5.378,5.378,0,1,1,0,10.757H195.876a5.378,5.378,0,0,1,0-10.757h10.757a5.378,5.378,0,1,1,0-10.757h-7.681a5.378,5.378,0,1,1,0-10.757h62.225a5.378,5.378,0,1,1,0,10.757h7.681a5.378,5.378,0,0,1,0,10.757Z" transform="translate(-51.45 -165.642)" fill="#f3f00d" opacity="0.1"/>
    <path id="Caminho_111" data-name="Caminho 111" d="M664.724,181.38,68.268,195.894C61.017,214.544,56.233,235.628,54,257.483H654.274a254.81,254.81,0,0,0,8.669-39.26A186.018,186.018,0,0,0,664.724,181.38ZM175.09,228.924H164.333a5.378,5.378,0,1,1,0,10.757H102.108a5.378,5.378,0,1,1,0-10.757h10.757a5.378,5.378,0,0,1,0-10.757h-7.681a5.378,5.378,0,1,1,0-10.757h62.225a5.378,5.378,0,0,1,0,10.757h7.681a5.378,5.378,0,1,1,0,10.757Z" transform="translate(-52.58 -104.756)" fill="#f3f00d" opacity="0.1"/>
    <path id="Caminho_112" data-name="Caminho 112" d="M639.368,507.514s-24.874-136.43-72.307-158.569c-40.192-18.773-83.655-31.428-96.014-34.861a53.368,53.368,0,0,0-6.369-8.312c-16.892-17.634-27.04-17.3-28.681-17.087a85.872,85.872,0,0,1-1.675-10.606c-.05-.558-.1-1.077-.145-1.63l.145-.073q-.151-1.583-.268-3.266a84.068,84.068,0,0,0,18.862-13.738c.073.24.134.48.212.726q18.26-15.435,35.765-31.707c3.349-3.132,6.866-6.531,8-10.947a16.065,16.065,0,0,0,.419-4.644c.151-3.349-.642-6.771-.776-10.165a11.636,11.636,0,0,1,.134-1.608c.781-5.554,4.644-10.115,7.815-14.776a69.678,69.678,0,0,0,11.851-39.891,67.544,67.544,0,0,0-2.791-20.1c-2.473-8.273-7.62-16.964-16.188-18.773-3.316-.7-6.76-.262-10.143-.48-14.006-.893-24.489-12.281-35.659-20.626A94.122,94.122,0,0,0,404.9,68.276c-5.275-.558-10.724-.6-15.742,1.077-11.271,3.751-18.114,15.334-28.972,20.1-8.027,3.539-17.3,2.964-25.678,5.621-12.465,3.963-23.043,16.747-23.323,29.882v1.7c-.14,6.637,2.233,13.4,2.423,20.191q0,.921.028,1.848c-.061,7.335-.938,14.692-3.612,21.586-1.44,3.712-3.294,8.01-2.992,11.723a7.846,7.846,0,0,0,1.853,6.14l2.7-2.378a81.531,81.531,0,0,0,28.051,77.5q.156,2.506.3,5.37c.424,8.273.759,18.65.664,29.96l-26.326,24.2L246.6,353.5s-61.9,13.074-48.565,100.028l6.364,53.991H260.9l-.128.285h83.873l.05-.285H544.252l-.039.285h7.815v-.285ZM436.493,290.069a58.007,58.007,0,0,1,4.019,11.053,45.28,45.28,0,0,1-4.337-11.656l.084.151Zm-95.914,11.164q0,1.6-.056,3.221l-.134.19a27.362,27.362,0,0,1,.19-3.439Z" transform="translate(-115.378 -54.636)" fill="url(#linear-gradient)"/>
    <path id="Caminho_113" data-name="Caminho 113" d="M562.011,428.823,550.846,535.443l-59.73,18.98s-77.593-14.514-57.5-56.38c14.3-29.781,13.9-83,12.482-111.248-.558-11.466-1.317-18.818-1.317-18.818s101.6-88.757,93.223-8.932c-1.619,15.457-1.714,27.543-.815,36.988C540.96,435.354,562.011,428.823,562.011,428.823Z" transform="translate(-218.818 -168.532)" fill="#fdc2cc"/>
    <path id="Caminho_114" data-name="Caminho 114" d="M562.011,428.823,550.846,535.443l-59.73,18.98s-77.593-14.514-57.5-56.38c14.3-29.781,13.9-83,12.482-111.248-.558-11.466-1.317-18.818-1.317-18.818s101.6-88.757,93.223-8.932c-1.619,15.457-1.714,27.543-.815,36.988C540.96,435.354,562.011,428.823,562.011,428.823Z" transform="translate(-218.818 -168.532)" opacity="0.03"/>
    <path id="Caminho_115" data-name="Caminho 115" d="M549.473,356.045c-1.619,15.457-1.714,27.543-.815,36.988a80.981,80.981,0,0,1-91.091-9.239c-.558-11.466-1.317-18.818-1.317-18.818S557.847,276.219,549.473,356.045Z" transform="translate(-230.284 -167.207)" opacity="0.1"/>
    <circle id="Elipse_108" data-name="Elipse 108" cx="80.942" cy="80.942" r="80.942" transform="translate(198.613 70.5)" fill="#fdc2cc"/>
    <circle id="Elipse_109" data-name="Elipse 109" cx="80.942" cy="80.942" r="80.942" transform="translate(198.613 70.5)" opacity="0.03"/>
    <path id="Caminho_116" data-name="Caminho 116" d="M637.743,685.347H217.959l-6.14-53.031c-12.839-85.408,46.891-98.247,46.891-98.247l65.312-30.144,25.957-24.283c-8.373,31.819,54.985,97.968,54.985,97.968h0a15,15,0,0,0,1.156-1.2c1.708-1.865,5.789-6.531,15.346-18.109,3.416-4.148,7.542-9.177,12.51-15.284,23.892-29.362,11.633-64.056,7.971-71.229l-.229-.447c-.14-.257-.246-.463-.329-.608a.909.909,0,0,0-.084-.151.886.886,0,0,1-.061-.112l30.7,24s1.178.313,3.349.927c11.946,3.349,53.913,15.8,92.665,34.241C613.739,551.373,637.743,685.347,637.743,685.347Z" transform="translate(-121.501 -232.469)" fill="#f3f00d"/>
    <path id="Caminho_117" data-name="Caminho 117" d="M641.622,557.45c-5.024-5.024-39.076-11.164-39.076-11.164,1.116,13.4-40.192,34.052-40.192,34.052l3.07,104.946H545.619l-3.349-94.34,9.49-13.4h0l1.156-1.2a184.2,184.2,0,0,0,15.345-18.109c3.416-4.148,7.542-9.177,12.51-15.284,23.892-29.363,11.633-64.056,7.971-71.229l-.229-.447c-.134-.262-.24-.463-.329-.608a.9.9,0,0,0-.084-.151.886.886,0,0,1-.061-.112h0s10.048-2.233,27.911,16.747a52.332,52.332,0,0,1,6.14,8.184C636.6,518.625,646.049,561.876,641.622,557.45Z" transform="translate(-268.286 -232.405)" fill="#f3f00d"/>
    <path id="Caminho_118" data-name="Caminho 118" d="M641.622,557.45c-5.024-5.024-39.076-11.164-39.076-11.164,1.116,13.4-40.192,34.052-40.192,34.052l3.07,104.946H545.619l-3.349-94.34,9.49-13.4h0l1.156-1.2a184.2,184.2,0,0,0,15.345-18.109c3.416-4.148,7.542-9.177,12.51-15.284,23.892-29.363,11.633-64.056,7.971-71.229l-.229-.447c-.134-.262-.24-.463-.329-.608a.9.9,0,0,0-.084-.151.886.886,0,0,1-.061-.112h0s10.048-2.233,27.911,16.747a52.332,52.332,0,0,1,6.14,8.184C636.6,518.625,646.049,561.876,641.622,557.45Z" transform="translate(-268.286 -232.405)" opacity="0.1"/>
    <path id="Caminho_119" data-name="Caminho 119" d="M313.25,703.4s26.236,53.589,27.632,85.129" transform="translate(-167.11 -335.372)" opacity="0.1"/>
    <path id="Caminho_120" data-name="Caminho 120" d="M767.836,714.31,760.3,768.737h7.536Z" transform="translate(-335.886 -315.575)" opacity="0.1"/>
    <path id="Caminho_121" data-name="Caminho 121" d="M323.75,667.411l41.588-94.619s11.723-22.329,14.514-44.658,17.863-57.5,17.863-57.5,37.4-47.449,54.706-40.75-15.072,31.819-15.072,31.819,47.449,18.421,15.072,73.127-32.935,44.658-32.935,44.658l-15.909,87.92Z" transform="translate(-171.749 -214.254)" opacity="0.1"/>
    <path id="Caminho_122" data-name="Caminho 122" d="M321.75,667.4l41.588-94.619s11.723-22.329,14.514-44.658c1.775-14.2,8.513-33.583,13.185-45.825a70.259,70.259,0,0,1,13.241-21.771c12.091-13.531,34.052-35.352,46.143-30.663,17.3,6.7-15.072,31.819-15.072,31.819s47.449,18.421,15.072,73.127-32.935,44.658-32.935,44.658l-15.909,87.92Z" transform="translate(-170.865 -214.245)" fill="#fdc2cc"/>
    <circle id="Elipse_110" data-name="Elipse 110" cx="1.675" cy="1.675" r="1.675" transform="translate(302.721 104.273)" fill="#fff" opacity="0.15"/>
    <circle id="Elipse_111" data-name="Elipse 111" cx="1.675" cy="1.675" r="1.675" transform="translate(294.906 107.622)" fill="#fff" opacity="0.15"/>
    <path id="Caminho_123" data-name="Caminho 123" d="M428.221,111.576c8.077-2.612,17.042-2.049,24.791-5.521,10.478-4.7,17.082-16.077,27.956-19.761,4.845-1.641,10.1-1.58,15.189-1.055a89.913,89.913,0,0,1,45.026,17.791c10.779,8.2,20.894,19.382,34.409,20.258,3.266.212,6.587-.218,9.786.469,8.284,1.775,13.247,10.31,15.63,18.421a69.365,69.365,0,0,1-8.742,57.274c-3.059,4.577-6.788,9.06-7.542,14.514-.737,5.348,1.541,10.891.212,16.127-1.117,4.337-4.466,7.676-7.726,10.751q-16.886,15.971-34.515,31.121c-6.107-19.4,2.852-40.3,1.457-60.589-.558-7.9-3.349-16.535-10.322-20.263-6.526-3.483-14.865-1.675-21.469-5.024-7.368-3.712-10.394-12.5-15.965-18.589-9.49-10.383-25.963-11.723-39.232-7.034s-24.115,14.335-34.61,23.741l-19.074,17.11c-3.723-4.2-.9-10.64,1.116-15.887,3-7.865,3.662-16.345,3.461-24.7-.162-6.7-2.473-13.314-2.339-19.834C405.987,128.038,416.191,115.467,428.221,111.576Z" transform="translate(-206.169 -62.137)" opacity="0.1"/>
    <path id="Caminho_124" data-name="Caminho 124" d="M428.221,108.576c8.077-2.612,17.042-2.049,24.791-5.521,10.478-4.7,17.082-16.077,27.956-19.761,4.845-1.641,10.1-1.58,15.189-1.055a89.913,89.913,0,0,1,45.026,17.791c10.779,8.2,20.894,19.382,34.409,20.258,3.266.212,6.587-.218,9.786.469,8.284,1.775,13.247,10.31,15.63,18.421a69.364,69.364,0,0,1-8.742,57.274c-3.059,4.577-6.788,9.06-7.542,14.514-.737,5.348,1.541,10.891.212,16.127-1.117,4.337-4.466,7.676-7.726,10.751q-16.886,15.971-34.515,31.121c-6.107-19.4,2.852-40.3,1.457-60.59-.558-7.9-3.349-16.535-10.322-20.263-6.526-3.483-14.865-1.675-21.469-5.024-7.368-3.712-10.394-12.5-15.965-18.589-9.49-10.383-25.963-11.723-39.232-7.034s-24.115,14.335-34.61,23.741l-19.074,17.11c-3.723-4.2-.9-10.64,1.116-15.887,3-7.865,3.662-16.345,3.461-24.7-.162-6.7-2.473-13.314-2.339-19.834C405.987,125.038,416.191,112.467,428.221,108.576Z" transform="translate(-206.169 -60.812)" fill="#865a61"/>
  </g>
</svg>
